<svg width="32" height="33" viewBox="0 0 32 33" fill="none" xmlns="http://www.w3.org/2000/svg">
<path d="M15.666 4.00195C22.2936 4.00195 27.666 9.37435 27.666 16.0019C27.666 22.6295 22.2936 28.0019 15.666 28.0019C13.5454 28.0054 11.462 27.4441 9.63003 26.3759L3.67083 28.0019L5.29323 22.0403C4.22414 20.2078 3.66249 18.1235 3.66603 16.0019C3.66603 9.37435 9.03843 4.00195 15.666 4.00195ZM11.5764 10.3619L11.3364 10.3715C11.1811 10.381 11.0292 10.4218 10.89 10.4915C10.7599 10.5653 10.641 10.6574 10.5372 10.7651C10.3932 10.9007 10.3116 11.0183 10.224 11.1323C9.78017 11.7094 9.5412 12.4179 9.54483 13.1459C9.54723 13.7339 9.70083 14.3063 9.94083 14.8415C10.4316 15.9239 11.2392 17.0699 12.3048 18.1319C12.5616 18.3875 12.8136 18.6443 13.0848 18.8831C14.4089 20.0489 15.9867 20.8896 17.6928 21.3383L18.3744 21.4427C18.5964 21.4547 18.8184 21.4379 19.0416 21.4271C19.3911 21.4091 19.7324 21.3145 20.0412 21.1499C20.1984 21.069 20.3517 20.9809 20.5008 20.8859C20.5008 20.8859 20.5524 20.8523 20.6508 20.7779C20.8128 20.6579 20.9124 20.5727 21.0468 20.4323C21.1464 20.3291 21.2328 20.2079 21.2988 20.0699C21.3924 19.8743 21.486 19.5011 21.5244 19.1903C21.5532 18.9527 21.5448 18.8231 21.5412 18.7427C21.5364 18.6143 21.4296 18.4811 21.3132 18.4247L20.6148 18.1115C20.6148 18.1115 19.5708 17.6567 18.9324 17.3663C18.8656 17.3372 18.794 17.3205 18.7212 17.3171C18.6391 17.3087 18.5562 17.318 18.4779 17.3442C18.3997 17.3705 18.328 17.4132 18.2676 17.4695C18.2616 17.4671 18.1812 17.5355 17.3136 18.5867C17.2638 18.6537 17.1952 18.7042 17.1166 18.732C17.0379 18.7598 16.9528 18.7635 16.872 18.7427C16.7939 18.7218 16.7173 18.6953 16.6428 18.6635C16.494 18.6011 16.4424 18.5771 16.3404 18.5339C15.6517 18.2334 15.014 17.8273 14.4504 17.3303C14.2992 17.1983 14.1588 17.0543 14.0148 16.9151C13.5427 16.463 13.1313 15.9516 12.7908 15.3935L12.72 15.2795C12.6692 15.2029 12.6281 15.1203 12.5976 15.0335C12.552 14.8571 12.6708 14.7155 12.6708 14.7155C12.6708 14.7155 12.9624 14.3963 13.098 14.2235C13.23 14.0555 13.3416 13.8923 13.4136 13.7759C13.5552 13.5479 13.5996 13.3139 13.5252 13.1327C13.1892 12.3119 12.8412 11.4947 12.4836 10.6835C12.4128 10.5227 12.2028 10.4075 12.012 10.3847C11.9472 10.3775 11.8824 10.3703 11.8176 10.3655C11.6565 10.3575 11.495 10.3591 11.334 10.3703L11.5752 10.3607L11.5764 10.3619Z" fill="#403531"/>
</svg>
