<svg width="32" height="33" viewBox="0 0 32 33" fill="none" xmlns="http://www.w3.org/2000/svg">
<g opacity="0.5">
<path d="M22.399 2.3833C21.8332 2.3833 21.2905 2.60806 20.8905 3.00814C20.4904 3.40822 20.2656 3.95084 20.2656 4.51663H4.26562V6.64997L6.39896 8.7833L8.53229 6.64997L10.6656 8.7833L12.799 6.64997L14.9323 8.7833H20.2656C20.2656 9.3491 20.4904 9.89172 20.8905 10.2918C21.2905 10.6919 21.8332 10.9166 22.399 10.9166H26.6656C26.9485 10.9166 27.2198 10.8043 27.4199 10.6042C27.6199 10.4042 27.7323 10.1329 27.7323 9.84997V3.44997C27.7323 3.16707 27.6199 2.89576 27.4199 2.69572C27.2198 2.49568 26.9485 2.3833 26.6656 2.3833H22.399ZM23.4656 5.5833C23.4656 5.3004 23.578 5.02909 23.778 4.82905C23.9781 4.62901 24.2494 4.51663 24.5323 4.51663C24.8152 4.51663 25.0865 4.62901 25.2865 4.82905C25.4866 5.02909 25.599 5.3004 25.599 5.5833V7.71663C25.599 7.99953 25.4866 8.27084 25.2865 8.47088C25.0865 8.67092 24.8152 8.7833 24.5323 8.7833C24.2494 8.7833 23.9781 8.67092 23.778 8.47088C23.578 8.27084 23.4656 7.99953 23.4656 7.71663V5.5833ZM4.57709 20.2052C4.37769 20.4051 4.26568 20.6759 4.26562 20.9582V29.05C4.26562 29.3329 4.37801 29.6042 4.57804 29.8042C4.77808 30.0043 5.04939 30.1166 5.33229 30.1166H8.53229C8.81519 30.1166 9.0865 30.0043 9.28654 29.8042C9.48658 29.6042 9.59896 29.3329 9.59896 29.05V27.9833H22.399V29.05C22.399 29.3329 22.5113 29.6042 22.7114 29.8042C22.9114 30.0043 23.1827 30.1166 23.4656 30.1166H26.6656C26.9485 30.1166 27.2198 30.0043 27.4199 29.8042C27.6199 29.6042 27.7323 29.3329 27.7323 29.05V20.9582C27.7322 20.6759 27.6202 20.4051 27.4208 20.2052L25.599 18.3833L22.7104 13.5684C22.6155 13.4099 22.481 13.2789 22.3202 13.188C22.1594 13.0971 21.9778 13.0496 21.7931 13.05H10.2048C10.0205 13.0499 9.83928 13.0977 9.67888 13.1885C9.51849 13.2794 9.38438 13.4102 9.28963 13.5684L6.39896 18.3833L4.57709 20.2052ZM23.7515 19.45H8.24643L10.8064 15.1833H21.1915L23.7515 19.45ZM11.7323 23.3497V24.1433C11.7323 24.313 11.6649 24.4758 11.5448 24.5958C11.4248 24.7159 11.262 24.7833 11.0923 24.7833H7.03896C6.86922 24.7833 6.70643 24.7159 6.58641 24.5958C6.46639 24.4758 6.39896 24.313 6.39896 24.1433V22.3641C6.399 22.2694 6.42006 22.1759 6.46061 22.0903C6.50116 22.0048 6.5602 21.9293 6.63346 21.8693C6.70672 21.8093 6.79239 21.7663 6.88427 21.7434C6.97616 21.7205 7.07198 21.7183 7.16483 21.7369L11.0475 22.5134C11.2406 22.5523 11.4144 22.6569 11.5392 22.8093C11.664 22.9618 11.7322 23.1527 11.7323 23.3497ZM25.599 22.6244V24.1433C25.599 24.313 25.5315 24.4758 25.4115 24.5958C25.2915 24.7159 25.1287 24.7833 24.959 24.7833H20.9056C20.7359 24.7833 20.5731 24.7159 20.4531 24.5958C20.3331 24.4758 20.2656 24.313 20.2656 24.1433V23.1748C20.2657 23.0269 20.3169 22.8837 20.4107 22.7693C20.5044 22.655 20.6348 22.5766 20.7798 22.5476L24.5771 21.7881C24.7009 21.7631 24.8288 21.766 24.9514 21.7965C25.074 21.8269 25.1883 21.8842 25.2861 21.9642C25.3838 22.0443 25.4626 22.145 25.5167 22.2591C25.5708 22.3733 25.5989 22.498 25.599 22.6244Z" fill="#403531"/>
</g>
</svg>
