<svg width="32" height="33" viewBox="0 0 32 33" fill="none" xmlns="http://www.w3.org/2000/svg">
<path d="M4.54042 4.54311C2.66602 6.41763 2.66602 9.43489 2.66602 15.4687V16.5354C2.66602 22.5692 2.66602 25.5865 4.54042 27.4609C6.41494 29.3354 9.43221 29.3354 15.466 29.3354H16.5327C22.5666 29.3354 25.5838 29.3354 27.4582 27.4609C29.3327 25.5865 29.3327 22.5692 29.3327 16.5354V15.4687C29.3327 9.43483 29.3327 6.41757 27.4582 4.54311C25.5838 2.6687 22.5666 2.6687 16.5327 2.6687H15.466C9.43215 2.6687 6.41488 2.6687 4.54042 4.54311ZM7.16602 10.7799H10.2105C10.3105 15.8688 12.5549 18.0243 14.3327 18.4688V10.7798H17.1994V15.1687C18.9549 14.9798 20.7993 12.9798 21.4216 10.7798H24.2882C24.0537 11.9208 23.5863 13.0011 22.9152 13.9532C22.2442 14.9053 21.3839 15.7087 20.3882 16.3132C21.5 16.8651 22.4819 17.6467 23.2691 18.6063C24.0563 19.5659 24.6309 20.6817 24.9549 21.8798H21.7994C21.5086 20.8391 20.9169 19.9074 20.0985 19.2017C19.2801 18.496 18.2716 18.0477 17.1994 17.9132V21.8798H16.8549C10.7771 21.8798 7.31048 17.7132 7.16602 10.7798V10.7799Z" fill="#403531"/>
</svg>
