<svg width="40" height="40" viewBox="0 0 40 40" fill="none" xmlns="http://www.w3.org/2000/svg">
<g opacity="0.5">
<path d="M6.66536 30H9.9987V36.8017L18.5004 30H26.6654C28.5037 30 29.9987 28.505 29.9987 26.6667V13.3333C29.9987 11.495 28.5037 10 26.6654 10H6.66536C4.82703 10 3.33203 11.495 3.33203 13.3333V26.6667C3.33203 28.505 4.82703 30 6.66536 30Z" fill="#403531"/>
<path d="M33.3333 3.33334H13.3333C11.495 3.33334 10 4.82834 10 6.66667H30C31.8383 6.66667 33.3333 8.16167 33.3333 10V23.3333C35.1717 23.3333 36.6667 21.8383 36.6667 20V6.66667C36.6667 4.82834 35.1717 3.33334 33.3333 3.33334Z" fill="#403531"/>
</g>
</svg>
