<svg width="24" height="24" viewBox="0 0 24 24" fill="none" xmlns="http://www.w3.org/2000/svg">
<g opacity="0.5">
<path d="M9.83966 3.26256L10.041 4.08045C9.24454 4.27718 8.4822 4.59272 7.77967 5.01647L7.34877 4.29308C8.12149 3.82503 8.96219 3.47754 9.83966 3.26256ZM14.1599 3.26256L13.9596 4.07932C14.7561 4.27607 15.5185 4.59161 16.221 5.01534L16.6575 4.29195C15.8819 3.82446 15.0397 3.47738 14.1599 3.26256ZM4.2931 7.34638C3.82552 8.12012 3.47805 8.96032 3.26254 9.8383L4.08047 10.0408C4.2772 9.24433 4.59276 8.48202 5.01652 7.77952L4.2931 7.34526V7.34638ZM3.84308 11.9995C3.84299 11.5905 3.87345 11.1821 3.93421 10.7777L3.10166 10.6494C2.96611 11.5436 2.96611 12.4531 3.10166 13.3472L3.93421 13.2212C3.87329 12.8168 3.84283 12.4084 3.84308 11.9995ZM16.6508 19.7036L16.2188 18.9836C15.5175 19.4072 14.7562 19.7223 13.9608 19.9185L14.1633 20.7375C15.0398 20.5202 15.8785 20.1716 16.6508 19.7036ZM20.1576 11.9995C20.1576 12.409 20.1261 12.8174 20.0654 13.2212L20.8979 13.3472C21.034 12.4531 21.034 11.5436 20.8979 10.6494L20.0654 10.7777C20.1261 11.1827 20.1576 11.59 20.1576 11.9995ZM20.7381 14.1573L19.9191 13.9548C19.7228 14.7521 19.4072 15.5152 18.983 16.2183L19.7065 16.6537C20.175 15.8787 20.5229 15.0369 20.7381 14.1573ZM13.2227 20.0636C12.4127 20.1874 11.588 20.1874 10.778 20.0636L10.652 20.8984C11.5454 21.0339 12.4542 21.0339 13.3476 20.8984L13.2216 20.0647L13.2227 20.0636ZM18.5668 16.8371C18.0805 17.4961 17.4976 18.0779 16.8375 18.5628L17.3393 19.2435C18.0659 18.7084 18.7086 18.0679 19.2463 17.3433L18.5668 16.8371ZM16.8375 5.43272C17.498 5.91873 18.0807 6.50149 18.5668 7.16188L19.2463 6.65562C18.7106 5.9305 18.0698 5.28931 17.345 4.75321L16.8375 5.43272ZM5.43279 7.16188C5.91892 6.50178 6.50189 5.91883 7.16201 5.43272L6.65573 4.75321C5.93058 5.28888 5.28937 5.92969 4.75325 6.6545L5.43279 7.16075V7.16188ZM19.7076 7.34526L18.983 7.78064C19.4072 8.48153 19.7233 9.24317 19.9191 10.0386L20.7381 9.83605C20.5227 8.95839 20.1753 8.11855 19.7076 7.34526ZM10.7768 3.9342C11.5868 3.81156 12.4105 3.81156 13.2205 3.9342L13.3465 3.10168C12.453 2.96611 11.5443 2.96611 10.6508 3.10168L10.7768 3.9342ZM5.86481 19.4696L4.12434 19.8746L4.52937 18.132L3.70919 17.9407L3.30305 19.6822C3.27023 19.8219 3.27359 19.9677 3.31281 20.1057C3.35203 20.2438 3.42581 20.3696 3.52717 20.4711C3.62854 20.5727 3.75414 20.6468 3.8921 20.6863C4.03006 20.7258 4.17582 20.7295 4.3156 20.697L6.0572 20.2954L5.86594 19.4696H5.86481ZM3.88358 17.1881L4.70713 17.3771L4.98839 16.1699C4.57732 15.4814 4.27095 14.7356 4.07934 13.957L3.26142 14.1595C3.44501 14.9052 3.72329 15.6243 4.08947 16.2993L3.88358 17.1881ZM7.8213 19.014L6.61411 19.2952L6.80537 20.1176L7.69417 19.9106C8.3692 20.2785 9.08812 20.5564 9.83403 20.7398L10.0365 19.9207C9.2597 19.7274 8.51581 19.4199 7.82917 19.0083L7.8213 19.014ZM11.9998 4.68683C10.0605 4.68803 8.20098 5.45923 6.83009 6.8309C5.45921 8.20258 4.68912 10.0625 4.68912 12.0017C4.69135 13.377 5.08044 14.724 5.81194 15.8887L5.10877 18.8902L8.10706 18.1871C9.74706 19.1713 11.7073 19.4741 13.5679 19.0306C15.4285 18.5871 17.0413 17.4325 18.0608 15.8142C19.0804 14.196 19.4255 12.2428 19.0223 10.3731C18.6191 8.50349 17.4996 6.86612 15.9037 5.81186C14.7344 5.07655 13.3811 4.68656 11.9998 4.68683Z" fill="#403531"/>
</g>
</svg>
