<svg width="24" height="25" viewBox="0 0 24 25" fill="none" xmlns="http://www.w3.org/2000/svg">
<path d="M20.4016 20.7795V17.7795C20.4016 16.9395 20.2816 16.0995 19.8016 15.2595C19.3216 14.4195 18.7216 13.6995 17.8816 13.2195C17.0416 12.6195 15.2416 12.4995 14.4016 12.4995L12.4816 14.5395L13.2016 16.0995V19.6995L12.0016 21.0195L10.8016 19.6995V16.0995L11.6416 14.5395L9.60156 12.4995C8.64156 12.4995 6.84156 12.6195 6.00156 13.2195C5.16156 13.6995 4.68156 14.4195 4.20156 15.2595C3.72156 16.0995 3.60156 16.8195 3.60156 17.7795V20.7795C3.60156 20.7795 6.72156 22.0995 12.0016 22.0995C17.2816 22.0995 20.4016 20.7795 20.4016 20.7795ZM12.0016 3.01953C9.72156 3.01953 8.40156 5.17953 8.76156 7.57953C9.12156 9.97953 10.3216 11.6595 12.0016 11.6595C13.6816 11.6595 14.8816 9.97953 15.2416 7.57953C15.6016 5.05953 14.2816 3.01953 12.0016 3.01953Z" fill="#403531"/>
</svg>
