<svg width="24" height="25" viewBox="0 0 24 25" fill="none" xmlns="http://www.w3.org/2000/svg">
<g opacity="0.4">
<path d="M13 16.5H11C10.45 16.5 10 16.05 10 15.5H3.01V19.5C3.01 20.6 3.91 21.5 5.01 21.5H19C20.1 21.5 21 20.6 21 19.5V15.5H14C14 16.05 13.55 16.5 13 16.5ZM20 7.5H16C16 5.29 14.21 3.5 12 3.5C9.79 3.5 8 5.29 8 7.5H4C2.9 7.5 2 8.4 2 9.5V12.5C2 13.61 2.89 14.5 4 14.5H10V13.5C10 12.95 10.45 12.5 11 12.5H13C13.55 12.5 14 12.95 14 13.5V14.5H20C21.1 14.5 22 13.6 22 12.5V9.5C22 8.4 21.1 7.5 20 7.5ZM10 7.5C10 6.4 10.9 5.5 12 5.5C13.1 5.5 14 6.4 14 7.5H9.99H10Z" fill="#403531"/>
</g>
</svg>
