<svg width="32" height="32" viewBox="0 0 32 32" fill="none" xmlns="http://www.w3.org/2000/svg">
<g clip-path="url(#clip0_788_9660)">
<path d="M7.40309 6.43789C13.0706 4.96536 19.0351 4.96536 24.7026 6.43789C26.6052 6.93209 28.0582 8.44969 28.4359 10.3369C29.1051 13.6812 29.1051 17.1209 28.4359 20.4653C28.0583 22.3524 26.6052 23.87 24.7026 24.3647C24.5589 24.4021 24.4149 24.4385 24.2707 24.474C23.9854 24.544 23.7839 24.7966 23.7839 25.0842V29.0819C23.7839 29.1797 23.7256 29.2688 23.6347 29.3101C23.544 29.3513 23.4365 29.3374 23.36 29.2741L19.1861 25.8315C18.8343 25.5415 18.3818 25.3934 17.9221 25.4183C14.3808 25.611 10.8306 25.2553 7.40309 24.3647C5.50049 23.87 4.04743 22.3524 3.66984 20.4653C3.00068 17.1209 3.00068 13.6812 3.66984 10.3369C4.04753 8.44969 5.50059 6.93209 7.40309 6.43789ZM18.3723 20.4351C18.5136 20.4351 18.63 20.3215 18.63 20.1834V15.4011H23.5262C23.6676 15.4011 23.7839 15.2875 23.7839 15.1494V10.6187C23.7839 10.4807 23.6676 10.367 23.5262 10.367H8.57975C8.43837 10.367 8.32204 10.4807 8.32204 10.6187V15.1494C8.32204 15.2875 8.43837 15.4011 8.57975 15.4011H13.476V20.1834C13.476 20.3215 13.5923 20.4351 13.7337 20.4351H18.3723Z" fill="#1F1F1F"/>
<path d="M24.1042 7.62744H8.05469V23.2512H24.1042V7.62744Z" fill="#1F1F1F"/>
<path fill-rule="evenodd" clip-rule="evenodd" d="M22.0072 10.3463C22.0072 9.97112 21.6948 9.66699 21.3094 9.66699H10.8423C10.4569 9.66699 10.1445 9.97112 10.1445 10.3463V12.7238C10.1445 13.099 10.4569 13.4031 10.8423 13.4031H13.2866C13.672 13.4031 13.9844 13.7072 13.9844 14.0824V20.5324C13.9844 20.9075 14.2968 21.2116 14.6822 21.2116H17.4734C17.8588 21.2116 18.1712 20.9075 18.1712 20.5324V14.0824C18.1712 13.7072 18.4837 13.4031 18.8691 13.4031H21.3094C21.6948 13.4031 22.0072 13.099 22.0072 12.7238V10.3463Z" fill="white"/>
<path d="M7.32979 6.41878C12.8992 4.97174 18.7604 4.97174 24.3298 6.41878C26.1995 6.90442 27.6274 8.39574 27.9985 10.2503C28.6561 13.5367 28.6561 16.9169 27.9985 20.2034C27.6274 22.0579 26.1995 23.5492 24.3298 24.0353C24.1887 24.072 24.0471 24.1078 23.9054 24.1427C23.6251 24.2115 23.4271 24.4597 23.4271 24.7423V28.6708C23.4271 28.7669 23.3697 28.8545 23.2805 28.895C23.1913 28.9355 23.0856 28.9219 23.0105 28.8597L18.9088 25.4767C18.5631 25.1917 18.1184 25.0462 17.6667 25.0707C14.1867 25.26 10.698 24.9105 7.32979 24.0353C5.46012 23.5492 4.03221 22.0579 3.66115 20.2034C3.00357 16.9169 3.00357 13.5367 3.66115 10.2503C4.03231 8.39574 5.46022 6.90442 7.32979 6.41878ZM18.1091 20.1737C18.248 20.1737 18.3623 20.0621 18.3623 19.9264V15.2268H23.1739C23.3127 15.2268 23.4271 15.1152 23.4271 14.9795V10.5272C23.4271 10.3916 23.3127 10.2799 23.1739 10.2799H8.48606C8.34714 10.2799 8.23283 10.3916 8.23283 10.5272V14.9795C8.23283 15.1152 8.34714 15.2268 8.48606 15.2268H13.2976V19.9264C13.2976 20.0621 13.4119 20.1737 13.5508 20.1737H18.1091Z" fill="#1F1F1F"/>
<path fill-rule="evenodd" clip-rule="evenodd" d="M22.0072 10.3443C22.0072 9.96917 21.6948 9.66504 21.3094 9.66504H10.8423C10.4569 9.66504 10.1445 9.96917 10.1445 10.3443V12.7219C10.1445 13.097 10.4569 13.4012 10.8423 13.4012H21.3094C21.6948 13.4012 22.0072 13.097 22.0072 12.7219V10.3443ZM17.4734 21.2135C17.8588 21.2135 18.1712 20.9094 18.1712 20.5342V14.0809C18.1712 13.7058 17.8588 13.4017 17.4734 13.4017H14.6822C14.2968 13.4017 13.9844 13.7058 13.9844 14.0809V20.5342C13.9844 20.9094 14.2968 21.2135 14.6822 21.2135H17.4734Z" fill="white"/>
</g>
<defs>
<clipPath id="clip0_788_9660">
<rect width="26.6667" height="24" fill="white" transform="translate(2.66797 5.3335)"/>
</clipPath>
</defs>
</svg>
