<svg width="32" height="32" viewBox="0 0 32 32" fill="none" xmlns="http://www.w3.org/2000/svg">
<path d="M29.3332 16.0001C29.3325 12.4641 27.9275 9.0731 25.4271 6.57277C22.9268 4.07244 19.5358 2.66746 15.9998 2.66675V5.33341C18.1093 5.33389 20.1713 5.95959 21.9253 7.13146C23.6793 8.30333 25.0466 9.96879 25.8545 11.9174C26.3907 13.2118 26.6666 14.5991 26.6665 16.0001H29.3332ZM2.6665 13.3334V6.66675C2.6665 6.31313 2.80698 5.97399 3.05703 5.72394C3.30708 5.47389 3.64622 5.33341 3.99984 5.33341H10.6665C11.0201 5.33341 11.3593 5.47389 11.6093 5.72394C11.8594 5.97399 11.9998 6.31313 11.9998 6.66675V12.0001C11.9998 12.3537 11.8594 12.6928 11.6093 12.9429C11.3593 13.1929 11.0201 13.3334 10.6665 13.3334H7.99984C7.99984 16.1624 9.12364 18.8755 11.124 20.8759C13.1244 22.8763 15.8375 24.0001 18.6665 24.0001V21.3334C18.6665 20.9798 18.807 20.6407 19.057 20.3906C19.3071 20.1406 19.6462 20.0001 19.9998 20.0001H25.3332C25.6868 20.0001 26.0259 20.1406 26.276 20.3906C26.526 20.6407 26.6665 20.9798 26.6665 21.3334V28.0001C26.6665 28.3537 26.526 28.6928 26.276 28.9429C26.0259 29.1929 25.6868 29.3334 25.3332 29.3334H18.6665C9.8305 29.3334 2.6665 22.1694 2.6665 13.3334Z" fill="#403531"/>
<path d="M23.3907 12.9387C23.7931 13.9091 24.0002 14.9494 24 16H21.6C21.6002 15.2645 21.4554 14.5363 21.1741 13.8568C20.8927 13.1773 20.4802 12.5599 19.9602 12.0398C19.4401 11.5198 18.8227 11.1073 18.1432 10.8259C17.4637 10.5446 16.7355 10.3998 16 10.4V8C17.5822 8.00008 19.1289 8.46933 20.4444 9.3484C21.7599 10.2275 22.7852 11.4769 23.3907 12.9387Z" fill="#403531"/>
</svg>
