<svg width="24" height="25" viewBox="0 0 24 25" fill="none" xmlns="http://www.w3.org/2000/svg">
<g id="teenyicons:star-solid">
<path id="Vector" d="M12.717 1.74554C12.6508 1.61199 12.5487 1.49959 12.422 1.421C12.2954 1.34242 12.1493 1.30078 12.0002 1.30078C11.8512 1.30078 11.7051 1.34242 11.5784 1.421C11.4518 1.49959 11.3496 1.61199 11.2834 1.74554L8.00823 8.38074L0.685032 9.44474C0.537272 9.4662 0.398466 9.52857 0.284316 9.62482C0.170167 9.72107 0.0852295 9.84734 0.0391138 9.98935C-0.00700184 10.1314 -0.0124555 10.2834 0.0233698 10.4284C0.059195 10.5733 0.134869 10.7054 0.241832 10.8095L5.54103 15.9743L4.28983 23.2687C4.26473 23.4158 4.28123 23.5669 4.33745 23.705C4.39368 23.8431 4.4874 23.9628 4.60804 24.0505C4.72868 24.1382 4.87143 24.1904 5.02017 24.2013C5.16892 24.2121 5.31774 24.1812 5.44983 24.1119L12.0002 20.6671L18.5506 24.1119C18.6827 24.1812 18.8315 24.2121 18.9803 24.2013C19.129 24.1904 19.2718 24.1382 19.3924 24.0505C19.5131 23.9628 19.6068 23.8431 19.663 23.705C19.7192 23.5669 19.7357 23.4158 19.7106 23.2687L18.4594 15.9727L23.7586 10.8095C23.8656 10.7054 23.9413 10.5733 23.9771 10.4284C24.0129 10.2834 24.0075 10.1314 23.9613 9.98935C23.9152 9.84734 23.8303 9.72107 23.7161 9.62482C23.602 9.52857 23.4632 9.4662 23.3154 9.44474L15.9922 8.38074L12.717 1.74554Z" fill="#E4E4E4"/>
</g>
</svg>
