<svg width="56" height="64" viewBox="0 0 56 64" fill="none" xmlns="http://www.w3.org/2000/svg">
<g clip-path="url(#clip0_279_3859)">
<path d="M35.4377 6.66067C37.3264 6.45024 39.0794 6.68453 40.6968 7.36353C40.9297 7.46115 41.1558 7.574 41.3737 7.70136V4.24219C40.4937 4.38054 39.6231 4.57175 38.7665 4.81478C36.9669 5.30892 35.2135 5.95546 33.5255 6.74728L32.7461 7.11588C31.3991 7.79536 30.0651 8.50394 28.7441 9.24163L28.6914 9.2767V10.064C30.062 9.31726 31.4448 8.58697 32.8399 7.87313C33.676 7.4394 34.542 7.03524 35.4377 6.66067Z" fill="#FFF2D9"/>
<path d="M50.3844 6.99578C49.1476 5.38203 47.3876 4.43487 45.1044 4.1543C45.5727 4.82494 46.1651 6.17626 46.1651 8.72215C46.1651 12.3445 45.3923 14.496 45.1982 14.9791C45.3425 16.7255 45.1058 18.4786 44.4881 20.2384C43.4615 23.1648 41.5904 25.9221 38.8747 28.5102C36.1504 31.0974 32.7678 33.3274 28.7268 35.2002H28.7087L28.6914 35.2181V35.9381C35.4322 34.0414 41.0807 31.0322 45.6369 26.9105C47.54 25.1866 49.1592 23.1778 50.4356 20.957C51.7245 18.7435 52.4252 16.2415 52.472 13.6858C52.4734 11.0629 51.7776 8.83285 50.3844 6.99578Z" fill="#FFF2D9"/>
<path d="M42.6353 2.93258C41.1358 0.976224 38.8693 -0.00195312 35.8356 -0.00195312C34.4194 -0.00195312 32.8138 0.249749 31.0189 0.753152C29.2193 1.24729 27.4659 1.89383 25.7779 2.68565L24.9985 3.05855C23.6515 3.73802 22.3178 4.44661 20.9972 5.1843L20.9438 5.21937V0.016656C20.4203 0.658712 19.799 1.21582 19.1023 1.66787C18.7491 1.88379 18.3825 2.07743 18.0047 2.24762C16.8828 2.72478 15.779 2.96479 14.6932 2.96765L14.0063 2.94976V45.2943C14.0178 45.7289 13.9331 46.1606 13.758 46.5591C13.6076 46.8872 13.3961 47.1842 13.1346 47.4344C12.826 47.7392 12.4666 47.9888 12.0724 48.1723C11.7713 48.3135 11.4572 48.4252 11.1343 48.5059L10.7266 48.5939H17.8452C18.0051 48.5941 18.1648 48.5824 18.3229 48.5588C19.3505 48.3475 20.0825 47.8438 20.5188 47.0479C20.7773 46.5734 20.9113 46.042 20.9085 45.5026L20.9438 31.8735C23.5854 31.1384 26.1575 30.1769 28.6311 28.9998V26.5663C26.4143 28.2707 23.8646 29.7926 20.9821 31.132H20.9647L20.9467 31.1499V6.00596C22.3163 5.25635 23.6975 4.52462 25.0902 3.81079C25.9272 3.37705 26.7939 2.9729 27.6901 2.59833C29.5793 2.3879 31.3323 2.62219 32.9492 3.30119C34.5786 3.98066 35.8171 5.36228 36.6648 7.44603C37.7395 10.3386 37.7635 13.2492 36.7369 16.1781C35.7103 19.1069 33.8399 21.8632 31.1257 24.447C30.801 24.7552 30.4669 25.0582 30.1234 25.356C30.1183 25.5492 30.1104 26.056 30.1104 27.2012C30.1104 27.6242 30.1104 27.9749 30.1039 28.2648C32.9184 26.7903 35.5347 24.9707 37.8915 22.8488C39.7947 21.125 41.4139 19.1161 42.6902 16.8952C43.9792 14.6818 44.6799 12.1797 44.7266 9.62403C44.7251 7.00108 44.0281 4.7706 42.6353 2.93258Z" fill="#EAC394"/>
<path d="M28.6941 35.9378L28.6588 49.567C28.6614 50.1063 28.5274 50.6376 28.2691 51.1122C27.8328 51.9091 27.1008 52.4125 26.0732 52.6224C25.9152 52.6466 25.7555 52.6585 25.5955 52.6582H18.4805L18.8882 52.5702C19.211 52.4894 19.5252 52.3777 19.8263 52.2367C20.2205 52.0532 20.5799 51.8035 20.8885 51.4987C21.149 51.2473 21.3593 50.9494 21.5083 50.6205C21.6833 50.222 21.768 49.7903 21.7566 49.3558V7.01123L22.4471 7.02912C23.5329 7.02912 24.6367 6.78911 25.7586 6.30909C26.1364 6.1389 26.503 5.94526 26.8562 5.72934C27.5527 5.27707 28.174 4.72 28.6977 4.07812L28.6941 35.9378Z" fill="#FFF2D9"/>
<path d="M0.00216474 59.8815C0.325705 59.8295 0.652908 59.8032 0.980666 59.8027C1.53125 59.8027 1.92886 59.9359 2.17348 60.1663C2.28184 60.2686 2.36722 60.3925 2.42405 60.5297C2.48087 60.667 2.50786 60.8146 2.50326 60.9629C2.50326 61.3208 2.39357 61.5992 2.18575 61.8061C1.90432 62.0967 1.43311 62.2484 0.886856 62.2484C0.689321 62.2578 0.491499 62.2373 0.300189 62.1876V63.929H0L0.00216474 59.8815ZM0.302354 61.9256C0.505484 61.9798 0.715579 62.0039 0.925823 61.9972C1.74557 61.9972 2.20379 61.6272 2.20379 60.9952C2.20379 60.2916 1.64166 60.0489 0.977057 60.0489C0.751639 60.0466 0.526488 60.065 0.304519 60.1041L0.302354 61.9256Z" fill="#FFF2D9"/>
<path d="M5.48608 61.894H3.65175V63.6769H5.6939V63.926H3.35156V59.8398H5.58855V60.0882H3.65175V61.6471H5.48608V61.894Z" fill="#FFF2D9"/>
<path d="M6.47656 59.8936C6.80765 59.8348 7.14324 59.8044 7.4796 59.8027C8.06627 59.8027 8.43356 59.9237 8.68396 60.1663C8.77824 60.2604 8.85275 60.3721 8.90317 60.495C8.95358 60.6179 8.9789 60.7494 8.97766 60.8821C8.97766 61.4225 8.62912 61.7925 8.1276 61.9442V61.9557C8.46387 62.0709 8.68396 62.3808 8.7821 62.7867C8.93508 63.4308 9.02023 63.7515 9.11837 63.9275H8.80014C8.73303 63.8123 8.64139 63.4544 8.52521 62.9448C8.39027 62.3565 8.12183 62.0859 7.55897 62.053H6.77603V63.9275H6.47656V59.8936ZM6.77603 61.8104H7.5698C8.24883 61.8104 8.67675 61.4582 8.67675 60.9307C8.67675 60.2758 8.13193 60.0454 7.47166 60.0454C7.23749 60.0408 7.00357 60.0631 6.77459 60.1119L6.77603 61.8104Z" fill="#FFF2D9"/>
<path d="M9.6943 63.4481C9.99608 63.6493 10.3518 63.756 10.7154 63.7544C11.3821 63.7544 11.7855 63.4023 11.7855 62.8956C11.7855 62.4282 11.5467 62.1619 10.8561 61.9436C10.0306 61.6824 9.70152 61.3488 9.70152 60.8149C9.70152 60.2144 10.2211 59.7656 10.9795 59.7656C11.4125 59.7656 11.7379 59.8687 11.8967 59.9718L11.7805 60.2208C11.5353 60.0745 11.2533 60.0001 10.9672 60.0061C10.2276 60.0061 9.99521 60.4492 9.99521 60.7705C9.99521 61.2071 10.2579 61.4555 10.9246 61.6681C11.6766 61.9107 12.0792 62.202 12.0792 62.8633C12.0792 63.4273 11.6629 63.9971 10.6786 63.9971C10.2875 63.9971 9.82852 63.8761 9.57812 63.6943L9.6943 63.4481Z" fill="#FFF2D9"/>
<path d="M13.2206 59.8398V61.6292H15.8018V59.8398H16.1013V63.9281H15.8018V61.8776H13.2206V63.9281H12.9219V59.8398H13.2206Z" fill="#FFF2D9"/>
<path d="M17.4777 59.8398V63.9281H17.1797V59.8398H17.4777Z" fill="#FFF2D9"/>
<path d="M18.5508 63.9281V59.8398H18.8322L20.6976 62.3571C21.0764 62.8667 21.321 63.1881 21.5354 63.5517L21.5476 63.5395C21.505 63.0664 21.4986 62.5811 21.4986 61.9506V59.8398H21.798V63.9281H21.5224L19.7183 61.4946C19.3698 61.0215 19.0523 60.5914 18.8322 60.2271L18.8134 60.2392C18.8445 60.7002 18.8502 61.1368 18.8502 61.7423V63.926L18.5508 63.9281Z" fill="#FFF2D9"/>
<path d="M27.0779 63.9267C26.9249 63.7871 26.7893 63.6404 26.5822 63.4593C26.1052 63.878 25.6838 63.9989 25.2111 63.9989C24.5321 63.9989 23.9844 63.5258 23.9844 62.8538C23.9844 62.2346 24.4 61.8768 24.8647 61.6463V61.6284C24.6078 61.307 24.4859 61.0093 24.4859 60.7488C24.4827 60.6184 24.5063 60.4887 24.5554 60.3676C24.6044 60.2466 24.6778 60.1367 24.771 60.0448C24.8643 59.9528 24.9755 59.8807 25.0978 59.8327C25.2201 59.7848 25.351 59.7621 25.4824 59.7661C25.9717 59.7661 26.326 60.1118 26.326 60.5849C26.326 61.0279 26.0576 61.3614 25.2804 61.7071V61.725C25.7942 62.2976 26.3144 62.8294 26.5829 63.1021C26.7849 62.8473 26.9321 62.5081 27.0541 61.7859H27.3355C27.2006 62.5138 27.0238 62.9747 26.7546 63.2596C27.0238 63.5208 27.2439 63.7334 27.464 63.9274L27.0779 63.9267ZM26.4111 63.2896C26.2401 63.1257 25.6224 62.5023 25.0047 61.8217C24.7356 61.9548 24.2766 62.2511 24.2766 62.8101C24.2766 63.3827 24.7298 63.7628 25.2869 63.7628C25.4967 63.763 25.7045 63.7212 25.8976 63.6399C26.0908 63.5586 26.2655 63.4395 26.4111 63.2896ZM24.7659 60.718C24.7659 61.0759 24.9622 61.3307 25.1267 61.5425C25.665 61.2877 26.0446 61.0415 26.0446 60.6121C26.0446 60.3215 25.8671 59.9937 25.4391 59.9937C24.9982 59.9958 24.7659 60.3415 24.7659 60.718Z" fill="#FFF2D9"/>
<path d="M29.4162 59.8815C29.7398 59.8295 30.067 59.8032 30.3947 59.8027C30.9453 59.8027 31.3429 59.9359 31.5875 60.1663C31.6959 60.2686 31.7813 60.3925 31.8381 60.5297C31.8949 60.667 31.9219 60.8146 31.9173 60.9629C31.9173 61.3208 31.8076 61.5992 31.5998 61.8061C31.3184 62.0967 30.8472 62.2484 30.3009 62.2484C30.1031 62.2578 29.9051 62.2372 29.7135 62.1876V63.929H29.4141L29.4162 59.8815ZM29.7157 61.9256C29.9191 61.9798 30.1294 62.0039 30.3399 61.9972C31.1589 61.9972 31.6179 61.6272 31.6179 60.9952C31.6179 60.2916 31.055 60.0489 30.3911 60.0489C30.1655 60.0466 29.9401 60.065 29.7179 60.1041L29.7157 61.9256Z" fill="#FFF2D9"/>
<path d="M32.6233 62.4902L32.0546 63.9281H31.7422L33.4062 59.8398H33.6992L35.351 63.9281H35.0385L34.4612 62.4902H32.6233ZM34.3551 62.2419L33.7778 60.8039C33.6674 60.5313 33.6126 60.3552 33.5513 60.1548H33.539C33.4777 60.3616 33.4105 60.5434 33.3131 60.7861L32.7257 62.2419H34.3551Z" fill="#FFF2D9"/>
<path d="M36.0078 59.8936C36.3389 59.8348 36.6745 59.8044 37.0108 59.8027C37.5975 59.8027 37.9648 59.9237 38.2152 60.1663C38.3095 60.2604 38.384 60.3721 38.4344 60.495C38.4848 60.6179 38.5102 60.7494 38.5089 60.8821C38.5089 61.4225 38.1604 61.7925 37.6589 61.9442V61.9557C37.9951 62.0709 38.2152 62.3808 38.3134 62.7867C38.4663 63.4308 38.5515 63.7515 38.6496 63.9275H38.3314C38.2643 63.8123 38.1726 63.4544 38.0565 62.9448C37.9215 62.3565 37.6531 62.0859 37.0902 62.053H36.3073V63.9275H36.0078V59.8936ZM36.3073 61.8104H37.1011C37.7801 61.8104 38.208 61.4582 38.208 60.9307C38.208 60.2758 37.6639 60.0454 37.0029 60.0454C36.7687 60.0408 36.5348 60.0631 36.3058 60.1119L36.3073 61.8104Z" fill="#FFF2D9"/>
<path d="M40.3942 60.0882H38.8594V59.8398H42.2293V60.0882H40.6944V63.9281H40.3942V60.0882Z" fill="#FFF2D9"/>
<path d="M42.6367 63.9281V59.8398H42.9181L44.7835 62.3571C45.1623 62.8667 45.4077 63.1881 45.6213 63.5517L45.6336 63.5395C45.591 63.0664 45.5845 62.5811 45.5845 61.9506V59.8398H45.8782V63.9281H45.6032L43.7992 61.4946C43.4507 61.0215 43.1325 60.5914 42.9124 60.2271L42.8936 60.2392C42.9246 60.7002 42.9304 61.1368 42.9304 61.7423V63.926L42.6367 63.9281Z" fill="#FFF2D9"/>
<path d="M49.0869 61.894H47.2526V63.6769H49.2947V63.926H46.9531V59.8398H49.1901V60.0882H47.2526V61.6471H49.0869V61.894Z" fill="#FFF2D9"/>
<path d="M50.0781 59.8936C50.4092 59.8348 50.7448 59.8044 51.0812 59.8027C51.6678 59.8027 52.0351 59.9237 52.2855 60.1663C52.3798 60.2604 52.4543 60.3721 52.5047 60.495C52.5551 60.6179 52.5805 60.7494 52.5792 60.8821C52.5792 61.4225 52.2307 61.7925 51.7292 61.9442V61.9557C52.0654 62.0709 52.2855 62.3808 52.3837 62.7867C52.5366 63.4308 52.6225 63.7515 52.7199 63.9275H52.4017C52.3346 63.8123 52.243 63.4544 52.1268 62.9448C51.9926 62.3565 51.7234 62.0859 51.1605 62.053H50.3776V63.9275H50.0781V59.8936ZM50.3776 61.8104H51.1714C51.8504 61.8104 52.2783 61.4582 52.2783 60.9307C52.2783 60.2758 51.7342 60.0454 51.0732 60.0454C50.8391 60.0408 50.6051 60.0631 50.3761 60.1119L50.3776 61.8104Z" fill="#FFF2D9"/>
<path d="M53.2959 63.4481C53.5976 63.6493 53.9533 63.756 54.3169 63.7544C54.9837 63.7544 55.3871 63.4023 55.3871 62.8956C55.3871 62.4282 55.1482 62.1619 54.4577 61.9436C53.6321 61.6824 53.3031 61.3488 53.3031 60.8149C53.3031 60.2144 53.8226 59.7656 54.581 59.7656C55.014 59.7656 55.3395 59.8687 55.4989 59.9718L55.382 60.2208C55.1368 60.0745 54.8549 60.0001 54.5688 60.0061C53.8291 60.0061 53.5968 60.4492 53.5968 60.7705C53.5968 61.2071 53.8594 61.4555 54.5262 61.6681C55.2781 61.9107 55.6808 62.202 55.6808 62.8633C55.6808 63.4273 55.2644 63.9971 54.2801 63.9971C53.889 63.9971 53.4301 63.8761 53.1797 63.6943L53.2959 63.4481Z" fill="#FFF2D9"/>
</g>
<defs>
<clipPath id="clip0_279_3859">
<rect width="55.68" height="64" fill="white"/>
</clipPath>
</defs>
</svg>
