<svg width="138" height="159" viewBox="0 0 138 159" fill="none" xmlns="http://www.w3.org/2000/svg">
<g clip-path="url(#clip0_122_4769)">
<path d="M87.8345 16.5464C92.5166 16.024 96.8614 16.6062 100.869 18.293C101.447 18.535 102.007 18.8151 102.547 19.1316V10.5391C100.366 10.8805 98.2079 11.3553 96.0853 11.9605C91.6248 13.1859 87.2788 14.7909 83.0953 16.7578L81.1636 17.6747C77.8278 19.3603 74.5217 21.1199 71.2455 22.9535L71.1133 23.0424V25.0057C74.5086 23.1436 77.932 21.3254 81.3834 19.551C83.4599 18.479 85.6103 17.4774 87.8345 16.5464Z" fill="#EAC394"/>
<path d="M124.874 17.3776C121.813 13.3691 117.45 11.016 111.788 10.3184C112.948 11.985 114.417 15.3414 114.417 21.6667C114.417 30.6662 112.501 36.0126 112.02 37.2119C112.378 41.5509 111.791 45.9064 110.26 50.2785C107.715 57.5503 103.078 64.401 96.348 70.8306C89.5894 77.2591 81.2076 82.7997 71.2026 87.4526H71.158L71.1133 87.497V89.2862C87.8208 84.5742 101.819 77.098 113.109 66.8577C117.824 62.574 121.837 57.5831 125.001 52.0659C128.195 46.5665 129.932 40.3506 130.048 34.0013C130.051 27.4852 128.327 21.9439 124.874 17.3776Z" fill="#EAC394"/>
<path d="M105.664 7.28681C101.947 2.43024 96.3287 0.00195312 88.8101 0.00195312C85.3003 0.00195312 81.3218 0.627385 76.8745 1.87825C72.4135 3.1039 68.0669 4.70894 63.8828 6.67559L61.9528 7.59064C58.617 9.2786 55.311 11.0388 52.0347 12.8713L51.9025 12.9583V0.0445965C50.6049 1.63921 49.065 3.02279 47.3384 4.14544C46.4625 4.68206 45.5535 5.16334 44.6168 5.58642C41.8373 6.77805 39.102 7.37446 36.4107 7.37565L34.6987 7.33123V112.535C34.6987 113.755 34.4938 114.802 34.084 115.677C33.7144 116.493 33.1936 117.233 32.5489 117.858C31.7834 118.615 30.8923 119.235 29.9148 119.69C29.1697 120.042 28.3915 120.32 27.5917 120.52L26.582 120.739H44.2218C44.6184 120.739 45.0144 120.71 45.4066 120.652C47.9537 120.127 49.7682 118.876 50.8499 116.899C51.4899 115.719 51.8217 114.398 51.8149 113.058L51.9025 79.1972C58.4496 77.3709 64.8247 74.9822 70.9558 72.0581V66.017C65.4625 70.2517 59.1412 74.0333 51.9918 77.3618H51.9472L51.9043 77.4044V14.9235C55.2985 13.0614 58.7218 11.2431 62.1744 9.46871C64.2497 8.39079 66.4025 7.3875 68.6327 6.45882C73.3135 5.93408 77.6578 6.51568 81.6655 8.20364C85.7042 9.89159 88.7767 13.3267 90.883 18.509C93.5445 25.6944 93.6041 32.923 91.0617 40.1948C88.5194 47.4666 83.8779 54.315 77.1372 60.7399C76.333 61.5051 75.505 62.2579 74.6532 62.9982C74.6407 63.4797 74.621 64.7377 74.621 67.5823C74.621 68.6342 74.621 69.5048 74.6067 70.2244C81.5815 66.5607 88.0656 62.0401 93.9067 56.7688C98.6247 52.4861 102.639 47.495 105.803 41.9769C108.995 36.477 110.729 30.2611 110.842 23.9123C110.842 17.3974 109.116 11.8555 105.664 7.28681Z" fill="#413632"/>
<path d="M71.1113 89.2872L71.0237 123.148C71.0308 124.488 70.699 125.808 70.0587 126.987C68.9758 128.964 67.162 130.215 64.6172 130.74C64.2251 130.799 63.829 130.828 63.4324 130.827H45.7891L46.7987 130.608C47.5984 130.408 48.3765 130.131 49.1219 129.78C50.0992 129.325 50.9898 128.704 51.7542 127.947C52.4002 127.322 52.9216 126.582 53.291 125.765C53.7244 124.778 53.9355 123.709 53.9093 122.632V17.4212L55.6195 17.4639C58.312 17.4639 61.0479 16.8675 63.8274 15.6746C64.7635 15.2522 65.6719 14.7715 66.5472 14.2354C68.2741 13.1125 69.8141 11.7283 71.1113 10.1328V89.2872Z" fill="#EAC394"/>
<path d="M-0.000332785 148.77C0.801386 148.64 1.61236 148.574 2.42467 148.574C3.78818 148.574 4.77462 148.905 5.38042 149.477C5.64846 149.73 5.85984 150.037 6.00085 150.377C6.14186 150.717 6.20933 151.083 6.19888 151.451C6.19888 152.339 5.92547 153.034 5.4108 153.546C4.71386 154.269 3.54693 154.646 2.19414 154.646C1.70448 154.668 1.21413 154.618 0.7395 154.496V158.821H-0.00390625L-0.000332785 148.77ZM0.743072 153.848C1.24673 153.982 1.76761 154.042 2.28886 154.025C4.31893 154.025 5.45548 153.105 5.45548 151.538C5.45548 149.791 4.06159 149.187 2.41752 149.187C1.85869 149.181 1.30051 149.227 0.750222 149.324L0.743072 153.848Z" fill="#413632"/>
<path d="M13.5925 153.771H9.04809V158.203H14.109V158.821H8.30469V148.663H13.8445V149.285H9.04809V153.158H13.5925V153.771Z" fill="#413632"/>
<path d="M16.0508 148.8C16.8712 148.653 17.7029 148.577 18.5365 148.574C19.9912 148.574 20.9008 148.875 21.5227 149.477C21.7562 149.71 21.9407 149.988 22.0655 150.293C22.1904 150.598 22.2531 150.924 22.25 151.254C22.25 152.595 21.3851 153.514 20.1431 153.89V153.921C20.9758 154.207 21.5227 154.976 21.7639 155.985C22.1428 157.584 22.3554 158.382 22.5985 158.819H21.814C21.646 158.531 21.419 157.643 21.1313 156.378C20.7971 154.916 20.1306 154.246 18.7367 154.162H16.7942V158.819H16.0508V148.8ZM16.7942 153.562H18.7599C20.4415 153.562 21.503 152.688 21.503 151.376C21.503 149.749 20.1538 149.177 18.5169 149.177C17.937 149.165 17.3577 149.221 16.7906 149.342L16.7942 153.562Z" fill="#413632"/>
<path d="M24.0221 157.636C24.771 158.134 25.6532 158.397 26.5543 158.391C28.2055 158.391 29.2063 157.517 29.2063 156.259C29.2063 155.098 28.6148 154.436 26.9028 153.892C24.8566 153.245 24.0435 152.415 24.0435 151.09C24.0435 149.597 25.332 148.483 27.2102 148.483C28.2824 148.483 29.0901 148.739 29.4833 148.995L29.1955 149.613C28.5878 149.25 27.8889 149.065 27.1798 149.08C25.3463 149.08 24.7709 150.18 24.7709 150.978C24.7709 152.064 25.4231 152.682 27.0743 153.21C28.9382 153.812 29.9336 154.535 29.9336 156.177C29.9336 157.579 28.9025 158.995 26.4632 158.995C25.4928 158.995 24.3563 158.695 23.7344 158.242L24.0221 157.636Z" fill="#413632"/>
<path d="M32.7707 148.663V153.105H39.1665V148.663H39.9082V158.821H39.1665V153.727H32.7707V158.821H32.0273V148.663H32.7707Z" fill="#413632"/>
<path d="M43.3158 148.663V158.821H42.5742V148.663H43.3158Z" fill="#413632"/>
<path d="M45.9844 158.821V148.663H46.6813L51.299 154.917C52.2372 156.182 52.8448 156.982 53.3737 157.886L53.4041 157.856C53.2987 156.68 53.2844 155.475 53.2844 153.908V148.663H54.0117V158.821H53.3291L48.8615 152.78C47.9984 151.604 47.2103 150.534 46.6634 149.63L46.6188 149.66C46.6938 150.806 46.7099 151.89 46.7099 153.391V158.817L45.9844 158.821Z" fill="#413632"/>
<path d="M67.1153 158.82C66.7364 158.465 66.4004 158.11 65.8876 157.658C64.7045 158.7 63.6591 159 62.4922 159C60.8106 159 59.4453 157.825 59.4453 156.157C59.4453 154.62 60.4764 153.732 61.6291 153.159V153.113C60.9911 152.315 60.6891 151.576 60.6891 150.93C60.6891 149.686 61.5826 148.488 63.1588 148.488C64.3722 148.488 65.2514 149.346 65.2514 150.523C65.2514 151.623 64.583 152.451 62.6584 153.309V153.355C63.9325 154.776 65.221 156.097 65.8876 156.775C66.3879 156.143 66.7507 155.299 67.0545 153.506H67.7514C67.4173 155.313 66.9777 156.459 66.3111 157.168C66.9777 157.815 67.5245 158.342 68.0695 158.826L67.1153 158.82ZM65.4622 157.237C65.0387 156.83 63.5072 155.283 61.9775 153.591C61.3092 153.922 60.1726 154.657 60.1726 156.047C60.1726 157.479 61.2949 158.413 62.6745 158.413C63.1948 158.414 63.71 158.31 64.189 158.108C64.668 157.906 65.1011 157.61 65.4622 157.237ZM61.386 150.841C61.386 151.729 61.8703 152.363 62.2795 152.889C63.6145 152.257 64.5526 151.646 64.5526 150.58C64.5526 149.856 64.113 149.043 63.0533 149.043C61.9615 149.055 61.386 149.913 61.386 150.848V150.841Z" fill="#413632"/>
<path d="M72.902 148.77C73.7037 148.64 74.5147 148.574 75.327 148.574C76.6905 148.574 77.6752 148.905 78.2828 149.477C78.5505 149.731 78.7615 150.037 78.9022 150.377C79.0429 150.718 79.1101 151.083 79.0994 151.451C79.0994 152.339 78.8278 153.034 78.3114 153.546C77.6144 154.269 76.4475 154.646 75.0947 154.646C74.605 154.668 74.1147 154.618 73.6401 154.496V158.821H72.8984L72.902 148.77ZM73.6365 153.848C74.1402 153.982 74.661 154.042 75.1823 154.025C77.2141 154.025 78.3507 153.105 78.3507 151.538C78.3507 149.791 76.9568 149.187 75.3127 149.187C74.7539 149.181 74.1957 149.227 73.6454 149.324L73.6365 153.848Z" fill="#413632"/>
<path d="M80.846 155.25L79.4361 158.821H78.6641L82.7867 148.663H83.5141L87.6064 158.821H86.8326L85.3922 155.25H80.846ZM85.151 154.631L83.7106 151.062C83.4372 150.383 83.3014 149.946 83.1495 149.448H83.1191C82.9586 149.98 82.7713 150.503 82.558 151.016L81.1034 154.633L85.151 154.631Z" fill="#413632"/>
<path d="M89.2422 148.8C90.0626 148.653 90.8943 148.577 91.7279 148.574C93.1826 148.574 94.0922 148.875 94.7141 149.477C94.9472 149.711 95.1314 149.988 95.2562 150.293C95.3811 150.598 95.444 150.924 95.4414 151.254C95.4414 152.595 94.5765 153.514 93.3345 153.89V153.921C94.1672 154.207 94.7141 154.976 94.9553 155.985C95.3342 157.584 95.5468 158.382 95.7899 158.819H95.0018C94.8338 158.531 94.6069 157.643 94.3191 156.378C93.985 154.916 93.3184 154.246 91.9245 154.162H89.9856V158.819H89.2422V148.8ZM89.9856 153.562H91.9513C93.6329 153.562 94.6944 152.688 94.6944 151.376C94.6944 149.749 93.3452 149.177 91.7083 149.177C91.1284 149.165 90.5491 149.221 89.982 149.342L89.9856 153.562Z" fill="#413632"/>
<path d="M100.109 149.285H96.3047V148.663H104.655V149.285H100.853V158.825H100.109V149.285Z" fill="#413632"/>
<path d="M105.672 158.821V148.663H106.369L110.987 154.917C111.925 156.182 112.532 156.982 113.061 157.886L113.092 157.856C112.986 156.68 112.972 155.475 112.972 153.908V148.663H113.699V158.821H113.017L108.549 152.78C107.686 151.604 106.898 150.534 106.351 149.63L106.306 149.66C106.381 150.806 106.397 151.89 106.397 153.391V158.817L105.672 158.821Z" fill="#413632"/>
<path d="M121.665 153.771H117.117V158.203H122.179V158.821H116.375V148.663H121.915V149.285H117.117V153.158H121.665V153.771Z" fill="#413632"/>
<path d="M124.117 148.8C124.938 148.653 125.769 148.577 126.603 148.574C128.058 148.574 128.967 148.875 129.587 149.477C129.821 149.71 130.005 149.988 130.13 150.293C130.255 150.598 130.318 150.924 130.315 151.254C130.315 152.595 129.451 153.514 128.209 153.89V153.921C129.042 154.207 129.587 154.976 129.83 155.985C130.209 157.584 130.422 158.382 130.663 158.819H129.875C129.709 158.531 129.482 157.643 129.194 156.378C128.86 154.916 128.193 154.246 126.8 154.162H124.859V158.819H124.117V148.8ZM124.859 153.562H126.825C128.506 153.562 129.568 152.688 129.568 151.376C129.568 149.749 128.218 149.177 126.582 149.177C126.001 149.165 125.421 149.221 124.853 149.342L124.859 153.562Z" fill="#413632"/>
<path d="M132.092 157.636C132.84 158.134 133.722 158.397 134.622 158.391C136.275 158.391 137.274 157.517 137.274 156.259C137.274 155.098 136.684 154.436 134.971 153.892C132.924 153.245 132.111 152.415 132.111 151.09C132.111 149.597 133.4 148.483 135.28 148.483C136.352 148.483 137.16 148.739 137.553 148.995L137.258 149.613C136.65 149.25 135.951 149.065 135.242 149.08C133.409 149.08 132.833 150.18 132.833 150.978C132.833 152.064 133.484 152.682 135.137 153.21C137.001 153.812 137.996 154.535 137.996 156.177C137.996 157.579 136.965 158.995 134.524 158.995C133.555 158.995 132.419 158.695 131.797 158.242L132.092 157.636Z" fill="#413632"/>
</g>
<defs>
<clipPath id="clip0_122_4769">
<rect width="138" height="159" fill="white"/>
</clipPath>
</defs>
</svg>
