<svg width="56" height="56" viewBox="0 0 56 56" fill="none" xmlns="http://www.w3.org/2000/svg">
<g filter="url(#filter0_d_300_13719)">
<rect x="4" width="48" height="48" rx="24" fill="white"/>
<rect x="4" width="48" height="48" rx="24" fill="url(#paint0_linear_300_13719)"/>
<path d="M22.8162 34.0637C22.0387 34.0637 22.1708 33.7701 21.9027 33.0298L19.6162 25.5049L37.2162 15.0637" fill="#C8DAEA"/>
<path d="M22.8174 34.0627C23.4174 34.0627 23.6825 33.7883 24.0174 33.4627L27.2174 30.3511L23.2258 27.9441" fill="#A9C9DD"/>
<path d="M23.2242 27.946L32.8962 35.0918C33.9999 35.7007 34.7965 35.3854 35.0714 34.0671L39.0084 15.5144C39.4115 13.8984 38.3924 13.1654 37.3366 13.6448L14.2186 22.559C12.6405 23.192 12.6497 24.0723 13.9309 24.4646L19.8635 26.3163L33.5981 17.6513C34.2465 17.2581 34.8416 17.4695 34.3532 17.9029" fill="url(#paint1_linear_300_13719)"/>
</g>
<defs>
<filter id="filter0_d_300_13719" x="0" y="0" width="56" height="56" filterUnits="userSpaceOnUse" color-interpolation-filters="sRGB">
<feFlood flood-opacity="0" result="BackgroundImageFix"/>
<feColorMatrix in="SourceAlpha" type="matrix" values="0 0 0 0 0 0 0 0 0 0 0 0 0 0 0 0 0 0 127 0" result="hardAlpha"/>
<feOffset dy="4"/>
<feGaussianBlur stdDeviation="2"/>
<feComposite in2="hardAlpha" operator="out"/>
<feColorMatrix type="matrix" values="0 0 0 0 0 0 0 0 0 0 0 0 0 0 0 0 0 0 0.25 0"/>
<feBlend mode="normal" in2="BackgroundImageFix" result="effect1_dropShadow_300_13719"/>
<feBlend mode="normal" in="SourceGraphic" in2="effect1_dropShadow_300_13719" result="shape"/>
</filter>
<linearGradient id="paint0_linear_300_13719" x1="22.0024" y1="2.0016" x2="10.0024" y2="30" gradientUnits="userSpaceOnUse">
<stop stop-color="#37AEE2"/>
<stop offset="1" stop-color="#1E96C8"/>
</linearGradient>
<linearGradient id="paint1_linear_300_13719" x1="24.2118" y1="24.5382" x2="26.7762" y2="32.8331" gradientUnits="userSpaceOnUse">
<stop stop-color="#EFF7FC"/>
<stop offset="1" stop-color="white"/>
</linearGradient>
</defs>
</svg>
