<svg width="32" height="32" viewBox="0 0 32 32" fill="none" xmlns="http://www.w3.org/2000/svg">
<g id="ri:whatsapp-fill">
<path id="Vector" d="M15.6665 4C22.2941 4 27.6665 9.3724 27.6665 16C27.6665 22.6276 22.2941 28 15.6665 28C13.5458 28.0034 11.4625 27.4422 9.63052 26.374L3.67132 28L5.29372 22.0384C4.22463 20.2058 3.66298 18.1216 3.66652 16C3.66652 9.3724 9.03892 4 15.6665 4ZM11.5769 10.36L11.3369 10.3696C11.1815 10.3791 11.0297 10.4199 10.8905 10.4896C10.7603 10.5633 10.6415 10.6555 10.5377 10.7632C10.3937 10.8988 10.3121 11.0164 10.2245 11.1304C9.78066 11.7075 9.54168 12.416 9.54532 13.144C9.54772 13.732 9.70132 14.3044 9.94132 14.8396C10.4321 15.922 11.2397 17.068 12.3053 18.13C12.5621 18.3856 12.8141 18.6424 13.0853 18.8812C14.4094 20.0469 15.9872 20.8876 17.6933 21.3364L18.3749 21.4408C18.5969 21.4528 18.8189 21.436 19.0421 21.4252C19.3916 21.4071 19.7328 21.3125 20.0417 21.148C20.1989 21.067 20.3522 20.979 20.5013 20.884C20.5013 20.884 20.5529 20.8504 20.6513 20.776C20.8133 20.656 20.9129 20.5708 21.0473 20.4304C21.1469 20.3272 21.2333 20.206 21.2993 20.068C21.3929 19.8724 21.4865 19.4992 21.5249 19.1884C21.5537 18.9508 21.5453 18.8212 21.5417 18.7408C21.5369 18.6124 21.4301 18.4792 21.3137 18.4228L20.6153 18.1096C20.6153 18.1096 19.5713 17.6548 18.9329 17.3644C18.8661 17.3352 18.7945 17.3185 18.7217 17.3152C18.6396 17.3068 18.5566 17.316 18.4784 17.3423C18.4002 17.3686 18.3285 17.4113 18.2681 17.4676C18.2621 17.4652 18.1817 17.5336 17.3141 18.5848C17.2643 18.6517 17.1957 18.7023 17.1171 18.7301C17.0384 18.7578 16.9533 18.7616 16.8725 18.7408C16.7943 18.7198 16.7177 18.6934 16.6433 18.6616C16.4945 18.5992 16.4429 18.5752 16.3409 18.532C15.6522 18.2314 15.0145 17.8254 14.4509 17.3284C14.2997 17.1964 14.1593 17.0524 14.0153 16.9132C13.5432 16.4611 13.1318 15.9496 12.7913 15.3916L12.7205 15.2776C12.6697 15.201 12.6285 15.1184 12.5981 15.0316C12.5525 14.8552 12.6713 14.7136 12.6713 14.7136C12.6713 14.7136 12.9629 14.3944 13.0985 14.2216C13.2305 14.0536 13.3421 13.8904 13.4141 13.774C13.5557 13.546 13.6001 13.312 13.5257 13.1308C13.1897 12.31 12.8417 11.4928 12.4841 10.6816C12.4133 10.5208 12.2033 10.4056 12.0125 10.3828C11.9477 10.3756 11.8829 10.3684 11.8181 10.3636C11.657 10.3556 11.4955 10.3572 11.3345 10.3684L11.5757 10.3588L11.5769 10.36Z" fill="#161211"/>
</g>
</svg>
