<svg width="41" height="40" viewBox="0 0 41 40" fill="none" xmlns="http://www.w3.org/2000/svg">
<path d="M33.2227 5.9375C33.2227 2.7068 30.594 0 27.3633 0C24.1326 0 21.5039 2.7068 21.5039 5.9375C21.5039 9.1682 24.1326 11.7969 27.3633 11.7969C30.594 11.7969 33.2227 9.1682 33.2227 5.9375Z" fill="#9F9A98"/>
<path d="M19.1602 5.9375C19.1602 2.7068 16.5315 0 13.3008 0C10.0701 0 7.44141 2.7068 7.44141 5.9375C7.44141 9.1682 10.0701 11.7969 13.3008 11.7969C16.5315 11.7969 19.1602 9.1682 19.1602 5.9375Z" fill="#9F9A98"/>
<path d="M14.4727 32.8906C15.7617 32.8906 16.8164 31.8359 16.8164 30.5469C16.8164 29.2578 15.7617 28.2031 14.4727 28.2031C10.6054 28.2031 7.44141 25.0391 7.44141 21.1719C7.44141 20.5155 7.95695 20 8.61328 20C9.26961 20 9.78516 20.5155 9.78516 21.1719C9.78516 23.7499 11.8946 25.8594 14.4727 25.8594C14.543 25.8594 14.6133 25.8828 14.6837 25.8828C15.1523 24.4999 16.4648 23.5156 17.9883 23.5156H20.332C17.754 23.5156 15.6445 21.4062 15.6445 18.8281C15.6445 16.2501 17.754 14.1406 20.332 14.1406C22.9101 14.1406 25.0195 16.2501 25.0195 18.8281C25.0195 21.4062 22.9101 23.5156 20.332 23.5156H22.6758C24.1993 23.5156 25.5118 24.4999 25.9804 25.8828C26.0508 25.8828 26.121 25.8594 26.1914 25.8594C28.7695 25.8594 30.8789 23.7499 30.8789 21.1719C30.8789 20.5155 31.3945 20 32.0508 20C32.7071 20 33.2227 20.5155 33.2227 21.1719C33.2227 25.0391 30.0587 28.2031 26.1914 28.2031C24.9023 28.2031 23.8477 29.2578 23.8477 30.5469C23.8477 31.8359 24.9023 32.8906 26.1914 32.8906C29.5423 32.8906 32.6708 31.4623 34.8376 29.1044C38.0878 25.5677 37.8406 21.5016 37.9102 21.1719C37.9102 15.9921 33.7149 11.7969 28.5352 11.7969H22.6758C21.7852 11.7969 20.9649 12.1485 20.332 12.6875C19.6991 12.1485 18.8789 11.7969 17.9883 11.7969H12.1289C6.95328 11.7969 2.75391 16.005 2.75391 21.1719C2.75391 23.8509 3.74969 26.5205 5.30078 28.4653C7.44398 31.1527 10.7713 32.8906 14.4727 32.8906Z" fill="#9F9A98"/>
<path d="M20.332 21.1719C21.6264 21.1719 22.6758 20.1225 22.6758 18.8281C22.6758 17.5337 21.6264 16.4844 20.332 16.4844C19.0376 16.4844 17.9883 17.5337 17.9883 18.8281C17.9883 20.1225 19.0376 21.1719 20.332 21.1719Z" fill="#9F9A98"/>
<path d="M16.8164 34.5842V40H23.8477V34.5842C22.4525 33.7723 21.5039 32.2775 21.5039 30.5469C21.5039 28.8569 22.4064 27.3884 23.7477 26.5637C23.5666 26.1502 23.1557 25.8594 22.6758 25.8594H17.9883C17.5084 25.8594 17.0975 26.1502 16.9164 26.5637C18.2577 27.3884 19.1602 28.8569 19.1602 30.5469C19.1602 32.2775 18.2116 33.7723 16.8164 34.5842Z" fill="#9F9A98"/>
<path d="M35.5664 38.8282V31.667C33.0044 33.9467 29.6602 35.2344 26.1914 35.2344V40H34.3945C35.0423 40 35.5664 39.4759 35.5664 38.8282Z" fill="#9F9A98"/>
<path d="M14.4727 35.2346C10.963 35.2346 7.66086 33.9302 5.09766 31.625V38.8284C5.09766 39.4761 5.6218 40.0002 6.26953 40.0002H14.4727V35.2346Z" fill="#9F9A98"/>
</svg>
