<svg width="41" height="40" viewBox="0 0 41 40" fill="none" xmlns="http://www.w3.org/2000/svg">
<g clip-path="url(#clip0_649_10404)">
<path d="M31.7591 18.8394C29.659 18.8394 27.9609 20.5457 27.9609 22.6375C27.9609 23.138 28.3711 23.5481 28.8715 23.5481C29.3719 23.5481 29.7821 23.138 29.7821 22.6375C29.7821 21.5465 30.6763 20.6523 31.7673 20.6523C32.2677 20.6523 32.6779 20.2421 32.6779 19.7417C32.6697 19.2413 32.2595 18.8394 31.7591 18.8394Z" fill="#9F9A98"/>
<path d="M37.9525 16.2225C37.7311 16.0092 37.4932 15.8041 37.2471 15.6072L33.8836 12.7524C32.5875 11.8336 31.0453 11.2512 29.3718 11.1363L29.5522 11.3168L27.5096 9.26595H27.4932C26.9271 8.74913 26.1642 8.4292 25.3357 8.4292C23.9083 8.4292 22.7024 9.35619 22.2922 10.6441C21.882 10.3816 21.4062 10.2257 20.8894 10.1929C20.8074 10.1847 20.7171 10.1847 20.6351 10.1847C20.0527 10.1847 19.5112 10.357 19.0519 10.6441C18.6335 9.36439 17.4276 8.4374 16.0084 8.4374C15.1798 8.4374 14.4251 8.74913 13.8509 9.27415H13.8345L11.7918 11.325L11.9723 11.1445C10.2988 11.2594 8.74835 11.85 7.46041 12.7606L4.097 15.6154C3.8509 15.8041 3.613 16.0092 3.39151 16.2307C1.7098 17.8549 0.667969 20.1273 0.667969 22.6457C0.667969 27.5678 4.67124 31.5711 9.5933 31.5711C14.138 31.5711 17.9034 28.1502 18.4448 23.745C19.1011 24.1224 19.864 24.3356 20.6679 24.3356C21.4801 24.3356 22.2348 24.1224 22.8911 23.745C23.4407 28.142 27.1979 31.5629 31.7426 31.5629C36.6646 31.5629 40.6679 27.5596 40.6679 22.6375C40.6761 20.1191 39.6343 17.8467 37.9525 16.2225ZM9.5933 28.7327C6.22989 28.7327 3.50635 26.0091 3.50635 22.6457C3.50635 19.2823 6.22989 16.5588 9.5933 16.5588C12.9567 16.5588 15.6802 19.2823 15.6802 22.6457C15.6884 26.0009 12.9567 28.7327 9.5933 28.7327ZM20.6761 21.809C19.5851 21.809 18.6991 20.923 18.6991 19.832C18.6991 18.7409 19.5851 17.8549 20.6761 17.8549C21.7672 17.8549 22.6532 18.7409 22.6532 19.832C22.6532 20.923 21.7672 21.809 20.6761 21.809ZM31.759 28.7327C28.3956 28.7327 25.672 26.0091 25.672 22.6457C25.672 19.2823 28.3956 16.5588 31.759 16.5588C35.1224 16.5588 37.8459 19.2823 37.8459 22.6457C37.8459 26.0009 35.1224 28.7327 31.759 28.7327Z" fill="#9F9A98"/>
<path d="M9.59506 18.8394C7.49498 18.8394 5.79688 20.5457 5.79688 22.6375C5.79688 23.138 6.20705 23.5481 6.70746 23.5481C7.20786 23.5481 7.61804 23.138 7.61804 22.6375C7.61804 21.5465 8.51221 20.6523 9.60327 20.6523C10.1037 20.6523 10.5138 20.2421 10.5138 19.7417C10.5056 19.2413 10.0955 18.8394 9.59506 18.8394Z" fill="#9F9A98"/>
</g>
<defs>
<clipPath id="clip0_649_10404">
<rect width="40" height="40" fill="white" transform="translate(0.667969)"/>
</clipPath>
</defs>
</svg>
