<svg width="41" height="40" viewBox="0 0 41 40" fill="none" xmlns="http://www.w3.org/2000/svg">
<path d="M36.8587 12.8103C34.0403 12.0355 32.0718 9.4493 32.0718 6.52172V1.30437C32.0718 0.583828 31.4875 0 30.7675 0H25.55C24.83 0 24.2457 0.583828 24.2457 1.30437C24.2457 3.46211 22.4903 5.21742 20.3326 5.21742C18.1749 5.21742 16.4196 3.46211 16.4196 1.30437C16.4196 0.583828 15.8354 0 15.1153 0H9.89784C9.17777 0 8.59347 0.583828 8.59347 1.30437V6.5218C8.59347 9.44938 6.62503 12.0355 3.80659 12.8109C2.02581 13.3004 0.845501 15.1262 1.06034 17.0521L3.3837 38.8341C3.45425 39.4969 4.01394 40 4.6805 40H19.0283V12.8013C17.3355 12.1999 16.4196 10.6775 16.4196 9.13047V6.50938C17.5111 7.33195 18.8636 7.82609 20.3327 7.82609C21.8017 7.82609 23.1542 7.33203 24.2457 6.50938V8.85102C24.2457 10.6645 23.1611 12.2584 21.6371 12.8182V40H35.9849C36.6515 40 37.2111 39.4969 37.2816 38.8341L39.6049 17.058C39.8198 15.1265 38.6394 13.3008 36.8587 12.8103ZM13.811 32.1739H5.29675L5.01847 29.5652H9.89784C10.6179 29.5652 11.2022 28.9814 11.2022 28.2609C11.2022 27.5403 10.6179 26.9565 9.89784 26.9565H4.74034L4.46214 24.3478H13.8109V32.1739H13.811ZM15.1153 19.1305H9.89784C9.17777 19.1305 8.59347 18.5466 8.59347 17.8261C8.59347 17.1055 9.17777 16.5217 9.89784 16.5217H15.1153C15.8353 16.5217 16.4196 17.1055 16.4196 17.8261C16.4196 18.5466 15.8354 19.1305 15.1153 19.1305ZM24.2457 17.8261C24.2457 17.1055 24.83 16.5217 25.5501 16.5217H30.7675C31.4876 16.5217 32.0719 17.1055 32.0719 17.8261C32.0719 18.5466 31.4876 19.1305 30.7675 19.1305H25.5501C24.83 19.1305 24.2457 18.5466 24.2457 17.8261ZM35.9253 26.9565H30.7675C30.0474 26.9565 29.4631 27.5403 29.4631 28.2609C29.4631 28.9814 30.0474 29.5652 30.7675 29.5652H35.647L35.3686 32.1739H26.8544V24.3478H36.2036L35.9253 26.9565Z" fill="#9F9A98"/>
</svg>
