<svg width="56" height="56" viewBox="0 0 56 56" fill="none" xmlns="http://www.w3.org/2000/svg">
<g filter="url(#filter0_d_279_3849)">
<rect x="4" width="48" height="48" rx="24" fill="white"/>
<rect x="4" width="48" height="48" rx="24" fill="url(#paint0_linear_279_3849)"/>
<path d="M22.8172 34.0635C22.0397 34.0635 22.1718 33.7699 21.9036 33.0296L19.6172 25.5047L37.2172 15.0635" fill="#C8DAEA"/>
<path d="M22.8164 34.0629C23.4164 34.0629 23.6815 33.7885 24.0164 33.4629L27.2164 30.3513L23.2248 27.9443" fill="#A9C9DD"/>
<path d="M23.2242 27.946L32.8962 35.0918C33.9999 35.7007 34.7965 35.3854 35.0714 34.0671L39.0084 15.5144C39.4115 13.8984 38.3924 13.1654 37.3366 13.6448L14.2186 22.559C12.6405 23.192 12.6497 24.0723 13.9309 24.4646L19.8635 26.3163L33.5981 17.6513C34.2465 17.2581 34.8416 17.4695 34.3532 17.9029" fill="url(#paint1_linear_279_3849)"/>
</g>
<defs>
<filter id="filter0_d_279_3849" x="0" y="0" width="56" height="56" filterUnits="userSpaceOnUse" color-interpolation-filters="sRGB">
<feFlood flood-opacity="0" result="BackgroundImageFix"/>
<feColorMatrix in="SourceAlpha" type="matrix" values="0 0 0 0 0 0 0 0 0 0 0 0 0 0 0 0 0 0 127 0" result="hardAlpha"/>
<feOffset dy="4"/>
<feGaussianBlur stdDeviation="2"/>
<feComposite in2="hardAlpha" operator="out"/>
<feColorMatrix type="matrix" values="0 0 0 0 0 0 0 0 0 0 0 0 0 0 0 0 0 0 0.25 0"/>
<feBlend mode="normal" in2="BackgroundImageFix" result="effect1_dropShadow_279_3849"/>
<feBlend mode="normal" in="SourceGraphic" in2="effect1_dropShadow_279_3849" result="shape"/>
</filter>
<linearGradient id="paint0_linear_279_3849" x1="22.0024" y1="2.0016" x2="10.0024" y2="30" gradientUnits="userSpaceOnUse">
<stop stop-color="#37AEE2"/>
<stop offset="1" stop-color="#1E96C8"/>
</linearGradient>
<linearGradient id="paint1_linear_279_3849" x1="24.2118" y1="24.5382" x2="26.7762" y2="32.8331" gradientUnits="userSpaceOnUse">
<stop stop-color="#EFF7FC"/>
<stop offset="1" stop-color="white"/>
</linearGradient>
</defs>
</svg>
