<svg width="24" height="24" viewBox="0 0 24 24" fill="none" xmlns="http://www.w3.org/2000/svg">
<g opacity="0.5">
<path d="M10 6H14V4H10V6ZM18 23C16.6167 23 15.4373 22.5123 14.462 21.537C13.4867 20.5617 12.9993 19.3827 13 18C13 16.6167 13.4877 15.4373 14.463 14.462C15.4383 13.4867 16.6173 12.9993 18 13C19.3833 13 20.5627 13.4877 21.538 14.463C22.5133 15.4383 23.0007 16.6173 23 18C23 19.3833 22.5123 20.5627 21.537 21.538C20.5617 22.5133 19.3827 23.0007 18 23ZM19.65 20.35L20.35 19.65L18.5 17.8V15H17.5V18.2L19.65 20.35ZM11.675 21H4C3.45 21 2.979 20.804 2.587 20.412C2.195 20.02 1.99934 19.5493 2 19V8C2 7.45 2.196 6.979 2.588 6.587C2.98 6.195 3.45067 5.99934 4 6H8V4C8 3.45 8.196 2.979 8.588 2.587C8.98 2.195 9.45067 1.99934 10 2H14C14.55 2 15.021 2.196 15.413 2.588C15.805 2.98 16.0007 3.45067 16 4V6H20C20.55 6 21.021 6.196 21.413 6.588C21.805 6.98 22.0007 7.45067 22 8V12.275C21.4167 11.8583 20.7833 11.5417 20.1 11.325C19.4167 11.1083 18.7167 11 18 11C16.05 11 14.3957 11.6793 13.037 13.038C11.6783 14.3967 10.9993 16.0507 11 18C11 18.5333 11.0543 19.05 11.163 19.55C11.2717 20.05 11.4423 20.5333 11.675 21Z" fill="white"/>
</g>
</svg>
