<svg width="48" height="48" viewBox="0 0 48 48" fill="none" xmlns="http://www.w3.org/2000/svg">
<g>
<path d="M46.4324 8.35303H44.8672V20.8747H46.4324C47.2965 20.8747 47.9977 20.1736 47.9977 19.3095V9.91828C47.9977 9.05418 47.2965 8.35303 46.4324 8.35303Z" fill="white"/>
<path d="M22.9566 28.179V33.9181C22.9566 34.7811 22.2544 35.4833 21.3913 35.4833H9.23353C8.50641 31.9154 5.34478 29.2224 1.56525 29.2224C0.701156 29.2224 0 29.9235 0 30.7876V43.3094C0 44.1735 0.701156 44.8746 1.56525 44.8746C5.34488 44.8746 8.5065 42.1817 9.23353 38.6137H21.3913C23.9806 38.6137 26.087 36.5073 26.087 33.9181V28.179H22.9566Z" fill="white"/>
<path d="M8.86753 3.13526C6.27825 3.13526 4.17188 5.24163 4.17188 7.83091V12.5266H33.2629L40.4787 3.13526C40.3795 3.11548 8.86753 3.13526 8.86753 3.13526Z" fill="white"/>
<path d="M35.0176 15.1983C34.7241 15.4918 34.3256 15.6569 33.911 15.6569H4.17188V20.3525C4.17188 22.9418 6.27825 25.0481 8.86753 25.0481H40.1719C41.036 25.0481 41.7371 24.347 41.7371 23.4829V6.92822L35.0176 15.1983Z" fill="white"/>
</g>
</svg>
