<svg width="48" height="48" viewBox="0 0 48 48" fill="none" xmlns="http://www.w3.org/2000/svg">
<g clip-path="url(#clip0_462_1014)">
<path d="M44.384 16.6392H39.2949L35.6485 3.87122C34.99 1.89685 33.3761 0.487039 31.3302 0.102196C29.2813 -0.284709 27.2672 0.441102 25.9359 2.03972C24.9763 3.19125 23.0224 3.19125 22.0627 2.03972C20.7307 0.441196 18.7176 -0.283678 16.6688 0.10229C14.6229 0.487227 13.0089 1.89694 12.3301 3.93666L8.70396 16.6392H3.61493C2.74925 16.6392 2.04688 17.3416 2.04688 18.2073C2.04688 19.0729 2.74925 19.7753 3.61493 19.7753H8.31902V30.8662L7.50227 30.4208C6.96227 30.1267 6.3048 30.1738 5.81281 30.5402C5.32184 30.9067 5.08896 31.5264 5.21768 32.1256L8.3538 46.7606C8.50896 47.4834 9.14805 47.9999 9.88717 47.9999H22.4315V38.5634L11.4561 32.5773L11.4555 26.0567C11.4607 29.5111 14.2717 32.3196 17.7273 32.3196C21.186 32.3196 23.9994 29.5061 23.9994 26.0475C23.9994 29.5062 26.813 32.3196 30.2716 32.3196C33.7302 32.3196 36.5437 29.5061 36.5437 26.0475V32.5768L25.5674 38.5634V48H38.1117C38.8507 48 39.4899 47.4835 39.6451 46.7607L42.7812 32.1257C42.9098 31.5266 42.677 30.9068 42.1861 30.5403C41.6951 30.1739 41.0366 30.1269 40.4966 30.4209L39.6791 30.8669L39.6795 24.4837C39.6795 24.4823 39.6798 24.481 39.6798 24.4795C39.6798 24.478 39.6795 24.4768 39.6795 24.4753L39.6797 19.7753H44.3838C45.2495 19.7753 45.9519 19.0729 45.9519 18.2073C45.9519 17.3416 45.2496 16.6392 44.384 16.6392ZM36.5438 22.9113H34.9757H25.5675H22.4314H13.0232H11.4553L11.4551 19.7752H36.5438V22.9113Z" fill="white"/>
</g>
<defs>
<clipPath id="clip0_462_1014">
<rect width="48" height="48" fill="white"/>
</clipPath>
</defs>
</svg>
