<svg width="48" height="48" viewBox="0 0 48 48" fill="none" xmlns="http://www.w3.org/2000/svg">
<g>
<path d="M6.50953 28.9035C4.29928 25.5723 3.13041 21.6868 3.13041 17.6667C3.13041 13.6609 4.29 9.7886 6.48497 6.46769C6.96094 5.74619 6.76209 4.77504 6.04172 4.29822C5.31919 3.82132 4.34906 4.01904 3.87225 4.74147C1.33903 8.57707 0 13.0454 0 17.6667C0 22.3043 1.34925 26.7889 3.90084 30.6338C4.37653 31.3504 5.3475 31.5522 6.07031 31.073C6.79078 30.595 6.98747 29.6229 6.50953 28.9035Z" fill="white"/>
<path d="M44.0876 4.6839C43.6087 3.96559 42.6376 3.77097 41.9171 4.24787C41.1977 4.72684 41.002 5.6979 41.4809 6.41837C43.6984 9.75156 44.8703 13.6422 44.8703 17.6683C44.8703 21.673 43.7107 25.5464 41.5157 28.8673C41.0397 29.5888 41.2386 30.5599 41.9589 31.0367C42.6769 31.5099 43.6479 31.3191 44.1284 30.5935C46.6616 26.7581 48.0007 22.2887 48.0007 17.6684C48.0007 13.0227 46.6474 8.53384 44.0876 4.6839Z" fill="white"/>
<path d="M38.8951 8.18514C38.4182 7.46064 37.447 7.26498 36.7266 7.74085C36.0051 8.21682 35.8065 9.18789 36.2823 9.90929C37.7997 12.2081 38.6017 14.8913 38.6017 17.6671C38.6017 20.4429 37.7997 23.126 36.2823 25.4249C35.8064 26.1464 36.0052 27.1176 36.7266 27.5934C37.4511 28.0708 38.4211 27.8674 38.8951 27.1491C40.7507 24.3366 41.732 21.0574 41.732 17.6671C41.732 14.2768 40.7507 10.9975 38.8951 8.18514Z" fill="white"/>
<path d="M11.7155 25.4247C10.1982 23.1259 9.39612 20.4427 9.39612 17.6669C9.39612 15.8327 9.74356 14.0464 10.4293 12.3547C10.7534 11.5537 10.3673 10.6407 9.56628 10.3157C8.76631 9.99467 7.85225 10.3788 7.52722 11.1787C6.69059 13.2454 6.26562 15.428 6.26562 17.6669C6.26562 21.0572 7.24691 24.3364 9.10259 27.1489C9.57369 27.8644 10.5439 28.0723 11.271 27.5931C11.9926 27.1173 12.1914 26.1462 11.7155 25.4247Z" fill="white"/>
<path d="M34.1381 8.98473C31.6455 3.16005 25.0382 1.63961 20.0938 3.16098C15.765 4.49486 11.2354 8.73611 12.7162 16.3023C13.3836 19.716 14.9173 23.0605 15.9312 25.2728C16.5027 26.5195 16.9884 27.3569 17.2641 29.732H32.5756C33.2354 28.0261 34.0454 26.3639 34.4957 24.6175C35.9887 18.8407 35.8551 12.9966 34.1381 8.98473Z" fill="white"/>
<path d="M31.74 33.5741C31.727 33.3398 31.7347 33.1018 31.7533 32.8618H16.5193C14.59 36.2163 14.2389 39.736 15.6629 42.1909C18.1334 46.4491 25.7344 46.3595 29.1945 42.5088C31.0665 40.425 31.9469 37.3354 31.74 33.5741Z" fill="white"/>
</g>
</svg>
