<svg width="32" height="33" viewBox="0 0 32 33" fill="none" xmlns="http://www.w3.org/2000/svg">
<g opacity="0.5">
<path d="M16.0587 2.15951L19.199 4.51684H21.3323L24.4747 2.16164C24.5791 2.08391 24.7031 2.03667 24.8328 2.02518C24.9625 2.01368 25.0928 2.03837 25.2093 2.09651C25.3258 2.15465 25.4239 2.24396 25.4927 2.3545C25.5615 2.46505 25.5983 2.59251 25.599 2.72271V9.85017C25.599 11.3904 24.4854 12.376 23.4656 13.2059V21.5835L25.1723 26.7035L26.6784 27.4566C26.9953 27.6151 27.2617 27.8587 27.4478 28.1602C27.634 28.4616 27.7325 28.809 27.7323 29.1632C27.7323 29.6902 27.3056 30.1168 26.7787 30.1168H9.06563C6.43523 30.1168 4.26562 27.9835 4.26562 25.2379C4.26562 20.6086 5.23202 17.1675 5.85496 14.8528C6.16642 13.6944 6.47363 12.8262 6.69336 12.2267C6.81709 11.8918 6.93869 11.5803 7.10296 11.2688C8.06083 9.44484 10.8235 10.8208 9.96589 12.6939C9.86519 12.9167 9.77058 13.1422 9.68216 13.3702C9.48803 13.8651 9.22563 14.6352 8.94403 15.6827C8.41922 17.6347 7.83683 20.5616 7.58936 24.4998C8.37443 20.1051 12.7563 15.6934 16.287 12.5339C15.551 11.8384 14.9344 10.9979 14.9344 9.85017V2.72057C14.9344 2.14457 15.5958 1.81391 16.0587 2.15951Z" fill="#403531"/>
</g>
</svg>
