<svg width="24" height="25" viewBox="0 0 24 25" fill="none" xmlns="http://www.w3.org/2000/svg">
<path d="M12 9.25049C11.2044 9.25049 10.4413 9.56656 9.87868 10.1292C9.31607 10.6918 9 11.4548 9 12.2505C9 13.0461 9.31607 13.8092 9.87868 14.3718C10.4413 14.9344 11.2044 15.2505 12 15.2505C12.7956 15.2505 13.5587 14.9344 14.1213 14.3718C14.6839 13.8092 15 13.0461 15 12.2505C15 11.4548 14.6839 10.6918 14.1213 10.1292C13.5587 9.56656 12.7956 9.25049 12 9.25049ZM12 17.2505C10.6739 17.2505 9.40215 16.7237 8.46447 15.786C7.52678 14.8483 7 13.5766 7 12.2505C7 10.9244 7.52678 9.65264 8.46447 8.71495C9.40215 7.77727 10.6739 7.25049 12 7.25049C13.3261 7.25049 14.5979 7.77727 15.5355 8.71495C16.4732 9.65264 17 10.9244 17 12.2505C17 13.5766 16.4732 14.8483 15.5355 15.786C14.5979 16.7237 13.3261 17.2505 12 17.2505ZM12 4.75049C7 4.75049 2.73 7.86049 1 12.2505C2.73 16.6405 7 19.7505 12 19.7505C17 19.7505 21.27 16.6405 23 12.2505C21.27 7.86049 17 4.75049 12 4.75049Z" fill="#E9C394"/>
</svg>
