<svg width="24" height="25" viewBox="0 0 24 25" fill="none" xmlns="http://www.w3.org/2000/svg">
<path d="M4 21.002H5V8.00195H4C3.46957 8.00195 2.96086 8.21267 2.58579 8.58774C2.21071 8.96281 2 9.47152 2 10.002V19.002C2 19.5324 2.21071 20.0411 2.58579 20.4162C2.96086 20.7912 3.46957 21.002 4 21.002ZM20 8.00195H13L14.122 4.63395C14.2221 4.33337 14.2494 4.0133 14.2016 3.70011C14.1538 3.38692 14.0322 3.08957 13.847 2.83255C13.6617 2.57553 13.4181 2.3662 13.1361 2.22179C12.8541 2.07738 12.5418 2.00204 12.225 2.00195H12L7 7.43995V21.002H18L21.912 12.406L22 12.002V10.002C22 9.47152 21.7893 8.96281 21.4142 8.58774C21.0391 8.21267 20.5304 8.00195 20 8.00195Z" fill="#E9C394"/>
</svg>
