<svg width="32" height="33" viewBox="0 0 32 33" fill="none" xmlns="http://www.w3.org/2000/svg">
<g opacity="0.5">
<path d="M16.0014 30.1166C23.6601 30.1166 29.8681 23.7166 29.8681 16.25C29.8681 9.84997 24.5348 4.51663 24.5348 4.51663L22.4014 11.9833L16.0014 2.3833L9.60143 11.9833L7.4681 4.51663C7.4681 4.51663 2.13477 9.84997 2.13477 16.25C2.13477 23.7166 8.34277 30.1166 16.0014 30.1166ZM16.0014 26.9166C14.5869 26.9166 13.2304 26.3547 12.2302 25.3545C11.23 24.3543 10.6681 22.9978 10.6681 21.5833C10.6681 18.6393 16.0014 11.9833 16.0014 11.9833C16.0014 11.9833 21.3348 18.6393 21.3348 21.5833C21.3348 22.9978 20.7729 24.3543 19.7727 25.3545C18.7725 26.3547 17.4159 26.9166 16.0014 26.9166Z" fill="#403531"/>
</g>
</svg>
