<svg width="24" height="25" viewBox="0 0 24 25" fill="none" xmlns="http://www.w3.org/2000/svg">
<path d="M20 3.00195H6.693C6.28611 3.0033 5.88922 3.12811 5.55478 3.35988C5.22035 3.59164 4.96413 3.91944 4.82 4.29995L2.063 11.651C2.02114 11.7632 1.9998 11.8821 2 12.002V14.002C2 15.105 2.897 16.002 4 16.002H9.612L8.49 19.369C8.38997 19.6696 8.36264 19.9897 8.41027 20.3029C8.4579 20.6162 8.57913 20.9136 8.764 21.171C9.14 21.691 9.746 22.002 10.388 22.002H12C12.297 22.002 12.578 21.87 12.769 21.642L17.469 16.002H20C21.103 16.002 22 15.105 22 14.002V5.00195C22 3.89895 21.103 3.00195 20 3.00195ZM11.531 20.002H10.386L11.948 15.318C11.998 15.1677 12.0117 15.0077 11.9878 14.8512C11.9639 14.6946 11.9032 14.546 11.8106 14.4175C11.7181 14.289 11.5963 14.1843 11.4554 14.112C11.3144 14.0398 11.1584 14.0021 11 14.002H4V12.183L6.693 5.00195H16V14.64L11.531 20.002ZM18 14.002V5.00195H20L20.001 14.002H18Z" fill="#403531"/>
</svg>
