<svg width="32" height="33" viewBox="0 0 32 33" fill="none" xmlns="http://www.w3.org/2000/svg">
<path d="M8.66686 14.0839C8.36953 14.0839 8.08419 14.1292 7.80019 14.1705C7.89219 13.8612 7.98686 13.5465 8.13886 13.2639C8.29086 12.8532 8.52819 12.4972 8.76419 12.1385C8.96153 11.7505 9.30953 11.4879 9.56553 11.1559C9.83353 10.8332 10.1989 10.6185 10.4882 10.3505C10.7722 10.0705 11.1442 9.93054 11.4402 9.7332C11.7495 9.55587 12.0189 9.35987 12.3069 9.26654L13.0255 8.97054L13.6575 8.70787L13.0109 6.12387L12.2149 6.31587C11.9602 6.37987 11.6495 6.45454 11.2962 6.54387C10.9349 6.61054 10.5495 6.7932 10.1202 6.95987C9.69619 7.1492 9.20553 7.2772 8.74953 7.5812C8.29086 7.87187 7.76153 8.11454 7.29486 8.50387C6.84286 8.9052 6.29753 9.2532 5.89486 9.76387C5.45486 10.2412 5.02019 10.7425 4.68286 11.3132C4.29219 11.8572 4.02686 12.4545 3.74686 13.0452C3.49353 13.6359 3.28953 14.2399 3.12286 14.8265C2.80686 16.0025 2.66553 17.1199 2.61086 18.0759C2.56553 19.0332 2.59219 19.8292 2.64819 20.4052C2.66819 20.6772 2.70553 20.9412 2.73219 21.1239L2.76553 21.3479L2.80019 21.3399C3.03734 22.4476 3.58327 23.4656 4.37481 24.2761C5.16636 25.0866 6.17118 25.6564 7.27305 25.9196C8.37491 26.1829 9.52879 26.1288 10.6012 25.7636C11.6736 25.3985 12.6207 24.7372 13.333 23.8562C14.0453 22.9753 14.4936 21.9107 14.6261 20.7856C14.7586 19.6605 14.5698 18.5209 14.0817 17.4986C13.5936 16.4763 12.826 15.613 11.8677 15.0087C10.9095 14.4044 9.79973 14.0838 8.66686 14.0839ZM23.3335 14.0839C23.0362 14.0839 22.7509 14.1292 22.4669 14.1705C22.5589 13.8612 22.6535 13.5465 22.8055 13.2639C22.9575 12.8532 23.1949 12.4972 23.4309 12.1385C23.6282 11.7505 23.9762 11.4879 24.2322 11.1559C24.5002 10.8332 24.8655 10.6185 25.1549 10.3505C25.4389 10.0705 25.8109 9.93054 26.1069 9.7332C26.4162 9.55587 26.6855 9.35987 26.9735 9.26654L27.6922 8.97054L28.3242 8.70787L27.6775 6.12387L26.8815 6.31587C26.6269 6.37987 26.3162 6.45454 25.9629 6.54387C25.6015 6.61054 25.2162 6.7932 24.7869 6.95987C24.3642 7.15054 23.8722 7.2772 23.4162 7.58254C22.9575 7.8732 22.4282 8.11587 21.9615 8.5052C21.5095 8.90654 20.9642 9.25454 20.5615 9.76387C20.1215 10.2412 19.6869 10.7425 19.3495 11.3132C18.9589 11.8572 18.6935 12.4545 18.4135 13.0452C18.1602 13.6359 17.9562 14.2399 17.7895 14.8265C17.4735 16.0025 17.3322 17.1199 17.2775 18.0759C17.2322 19.0332 17.2589 19.8292 17.3149 20.4052C17.3349 20.6772 17.3722 20.9412 17.3989 21.1239L17.4322 21.3479L17.4669 21.3399C17.704 22.4476 18.2499 23.4656 19.0415 24.2761C19.833 25.0866 20.8378 25.6564 21.9397 25.9196C23.0416 26.1829 24.1955 26.1288 25.2679 25.7636C26.3403 25.3985 27.2874 24.7372 27.9997 23.8562C28.7119 22.9753 29.1603 21.9107 29.2928 20.7856C29.4252 19.6605 29.2365 18.5209 28.7484 17.4986C28.2602 16.4763 27.4926 15.613 26.5344 15.0087C25.5761 14.4044 24.4664 14.0838 23.3335 14.0839Z" fill="black"/>
</svg>
