<svg width="40" height="40" viewBox="0 0 40 40" fill="none" xmlns="http://www.w3.org/2000/svg">
<g opacity="0.5">
<path d="M37.5 17.5H35.8125L31.4719 7.73438C31.2754 7.29254 30.9551 6.91716 30.5496 6.65369C30.1442 6.39023 29.671 6.25001 29.1875 6.25H10.8125C10.329 6.25001 9.85581 6.39023 9.45036 6.65369C9.04491 6.91716 8.72456 7.29254 8.52813 7.73438L4.1875 17.5H2.5C2.16848 17.5 1.85054 17.6317 1.61612 17.8661C1.3817 18.1005 1.25 18.4185 1.25 18.75C1.25 19.0815 1.3817 19.3995 1.61612 19.6339C1.85054 19.8683 2.16848 20 2.5 20H3.75V32.5C3.75 33.163 4.01339 33.7989 4.48223 34.2678C4.95107 34.7366 5.58696 35 6.25 35H10C10.663 35 11.2989 34.7366 11.7678 34.2678C12.2366 33.7989 12.5 33.163 12.5 32.5V30H27.5V32.5C27.5 33.163 27.7634 33.7989 28.2322 34.2678C28.7011 34.7366 29.337 35 30 35H33.75C34.413 35 35.0489 34.7366 35.5178 34.2678C35.9866 33.7989 36.25 33.163 36.25 32.5V20H37.5C37.8315 20 38.1495 19.8683 38.3839 19.6339C38.6183 19.3995 38.75 19.0815 38.75 18.75C38.75 18.4185 38.6183 18.1005 38.3839 17.8661C38.1495 17.6317 37.8315 17.5 37.5 17.5ZM12.5 25H10C9.66848 25 9.35054 24.8683 9.11612 24.6339C8.8817 24.3995 8.75 24.0815 8.75 23.75C8.75 23.4185 8.8817 23.1005 9.11612 22.8661C9.35054 22.6317 9.66848 22.5 10 22.5H12.5C12.8315 22.5 13.1495 22.6317 13.3839 22.8661C13.6183 23.1005 13.75 23.4185 13.75 23.75C13.75 24.0815 13.6183 24.3995 13.3839 24.6339C13.1495 24.8683 12.8315 25 12.5 25ZM27.5 25C27.1685 25 26.8505 24.8683 26.6161 24.6339C26.3817 24.3995 26.25 24.0815 26.25 23.75C26.25 23.4185 26.3817 23.1005 26.6161 22.8661C26.8505 22.6317 27.1685 22.5 27.5 22.5H30C30.3315 22.5 30.6495 22.6317 30.8839 22.8661C31.1183 23.1005 31.25 23.4185 31.25 23.75C31.25 24.0815 31.1183 24.3995 30.8839 24.6339C30.6495 24.8683 30.3315 25 30 25H27.5Z" fill="#403531"/>
</g>
</svg>
