<svg width="24" height="24" viewBox="0 0 24 24" fill="none" xmlns="http://www.w3.org/2000/svg">
<g opacity="0.5">
<path d="M11.75 3C16.7207 3 20.75 7.0293 20.75 12C20.75 16.9707 16.7207 21 11.75 21C10.1595 21.0026 8.597 20.5816 7.22301 19.7805L2.75361 21L3.97041 16.5288C3.1686 15.1544 2.74736 13.5912 2.75001 12C2.75001 7.0293 6.77931 3 11.75 3ZM8.68281 7.77L8.50281 7.7772C8.38628 7.78429 8.27239 7.81491 8.16801 7.8672C8.07038 7.92248 7.98126 7.9916 7.90341 8.0724C7.79541 8.1741 7.73421 8.2623 7.66851 8.3478C7.33562 8.78061 7.15638 9.31198 7.15911 9.858C7.16091 10.299 7.27611 10.7283 7.45611 11.1297C7.82421 11.9415 8.42991 12.801 9.22911 13.5975C9.42171 13.7892 9.61071 13.9818 9.81411 14.1609C10.8072 15.0352 11.9905 15.6657 13.2701 16.0023L13.7813 16.0806C13.9478 16.0896 14.1143 16.077 14.2817 16.0689C14.5438 16.0554 14.7998 15.9844 15.0314 15.861C15.1493 15.8003 15.2643 15.7342 15.3761 15.663C15.3761 15.663 15.4148 15.6378 15.4886 15.582C15.6101 15.492 15.6848 15.4281 15.7856 15.3228C15.8603 15.2454 15.9251 15.1545 15.9746 15.051C16.0448 14.9043 16.115 14.6244 16.1438 14.3913C16.1654 14.2131 16.1591 14.1159 16.1564 14.0556C16.1528 13.9593 16.0727 13.8594 15.9854 13.8171L15.4616 13.5822C15.4616 13.5822 14.6786 13.2411 14.1998 13.0233C14.1497 13.0014 14.096 12.9889 14.0414 12.9864C13.9798 12.9801 13.9176 12.987 13.8589 13.0067C13.8003 13.0264 13.7465 13.0585 13.7012 13.1007C13.6967 13.0989 13.6364 13.1502 12.9857 13.9386C12.9484 13.9888 12.8969 14.0267 12.8379 14.0475C12.7789 14.0684 12.7151 14.0712 12.6545 14.0556C12.5959 14.0399 12.5384 14.02 12.4826 13.9962C12.371 13.9494 12.3323 13.9314 12.2558 13.899C11.7393 13.6736 11.261 13.369 10.8383 12.9963C10.7249 12.8973 10.6196 12.7893 10.5116 12.6849C10.1575 12.3458 9.84896 11.9622 9.59361 11.5437L9.54051 11.4582C9.50237 11.4007 9.47153 11.3388 9.44871 11.2737C9.41451 11.1414 9.50361 11.0352 9.50361 11.0352C9.50361 11.0352 9.72231 10.7958 9.82401 10.6662C9.92301 10.5402 10.0067 10.4178 10.0607 10.3305C10.1669 10.1595 10.2002 9.984 10.1444 9.8481C9.89241 9.2325 9.63141 8.6196 9.36321 8.0112C9.31011 7.8906 9.15261 7.8042 9.00951 7.7871C8.96091 7.7817 8.91231 7.7763 8.86371 7.7727C8.74284 7.76669 8.62173 7.76789 8.50101 7.7763L8.68191 7.7691L8.68281 7.77Z" fill="#403531"/>
</g>
</svg>
