<svg width="24" height="24" viewBox="0 0 24 24" fill="none" xmlns="http://www.w3.org/2000/svg">
<g opacity="0.5">
<path fill-rule="evenodd" clip-rule="evenodd" d="M19.7786 4.42997C20.0257 4.32596 20.2962 4.29008 20.5619 4.32608C20.8276 4.36208 21.0788 4.46863 21.2893 4.63465C21.4998 4.80067 21.662 5.02008 21.759 5.27005C21.8559 5.52002 21.8841 5.79141 21.8406 6.05597L19.5726 19.813C19.3526 21.14 17.8966 21.901 16.6796 21.24C15.6616 20.687 14.1496 19.835 12.7896 18.946C12.1096 18.501 10.0266 17.076 10.2826 16.062C10.5026 15.195 14.0026 11.937 16.0026 9.99997C16.7876 9.23897 16.4296 8.79997 15.5026 9.49997C13.1996 11.238 9.50461 13.881 8.28261 14.625C7.20461 15.281 6.64261 15.393 5.97061 15.281C4.74461 15.077 3.60761 14.761 2.67961 14.376C1.42561 13.856 1.48661 12.132 2.67861 11.63L19.7786 4.42997Z" fill="#403531"/>
</g>
</svg>
