<svg width="32" height="32" viewBox="0 0 32 32" fill="none" xmlns="http://www.w3.org/2000/svg">
<path d="M4.91157 19.0948V12.9166H0V19.0948H1.27733V14.1618H3.63424V19.0948H4.91157ZM10.1117 16.7138C10.5115 16.2771 10.7261 15.7023 10.7103 15.1105C10.7103 13.7984 9.82848 12.9166 8.51374 12.9166H5.96977V19.0948H7.2471V17.3445H8.51374C9.16309 17.3445 9.71624 17.1254 10.1117 16.7138ZM7.2471 16.1126V14.1458H8.46029C9.03215 14.1458 9.40092 14.5306 9.40092 15.1265C9.40092 15.7278 9.03215 16.1152 8.46029 16.1152H7.2471V16.1126ZM32 19.0948V12.9166H30.728L27.8901 17.3258L28.1466 17.3044V12.9166H26.8853V19.0948H28.1573L31.0888 14.5386L30.7414 14.6402V19.0948H32ZM14.4782 12.799C13.6043 12.799 12.7947 13.1277 12.1961 13.7236C11.8987 14.024 11.6639 14.3803 11.5052 14.772C11.3465 15.1637 11.267 15.5831 11.2715 16.0057C11.2715 16.8795 11.6002 17.6892 12.1961 18.2878C12.4964 18.5851 12.8528 18.82 13.2445 18.9787C13.6362 19.1374 14.0555 19.2168 14.4782 19.2124C15.352 19.2124 16.1617 18.8837 16.7603 18.2878C17.0576 17.9874 17.2924 17.6311 17.4511 17.2393C17.6098 16.8476 17.6893 16.4283 17.6848 16.0057C17.6848 15.1319 17.3562 14.3222 16.7603 13.7236C16.4599 13.4262 16.1035 13.1914 15.7118 13.0327C15.3201 12.874 14.9008 12.7946 14.4782 12.799ZM14.4782 17.9751C13.4093 17.9751 12.5702 17.1093 12.5702 16.0057C12.5634 15.7504 12.6077 15.4963 12.7004 15.2583C12.7931 15.0204 12.9324 14.8033 13.1101 14.6199C13.2879 14.4364 13.5004 14.2903 13.7353 14.1901C13.9702 14.0899 14.2228 14.0376 14.4782 14.0362C15.5471 14.0362 16.3861 14.9021 16.3861 16.0057C16.3929 16.261 16.3486 16.5151 16.2559 16.753C16.1632 16.991 16.0239 17.2081 15.8462 17.3915C15.6685 17.5749 15.4559 17.721 15.221 17.8213C14.9861 17.9215 14.7336 17.9738 14.4782 17.9751ZM25.3248 17.7827C25.5669 17.5439 25.7585 17.2587 25.888 16.9442C26.0174 16.6297 26.0822 16.2923 26.0783 15.9522C26.0783 15.2388 25.8111 14.5894 25.3248 14.1111C24.8003 13.6167 24.1027 13.348 23.382 13.3628H22.8316V12.799H21.605V13.3628H21.0438C20.2823 13.3628 19.5928 13.6301 19.0985 14.1111C18.8556 14.3516 18.6637 14.6386 18.5342 14.9549C18.4048 15.2713 18.3404 15.6105 18.3449 15.9522C18.3449 16.6604 18.6121 17.3097 19.0985 17.7827C19.5928 18.2637 20.2823 18.5309 21.0438 18.5309H21.605V19.2124H22.8316V18.5283H23.382C24.141 18.5283 24.8304 18.2637 25.3248 17.7827ZM21.605 17.3044H20.9851C20.8063 17.3113 20.628 17.2809 20.4615 17.2152C20.2951 17.1495 20.1442 17.0499 20.0183 16.9228C19.8924 16.7956 19.7943 16.6437 19.7303 16.4766C19.6662 16.3095 19.6376 16.131 19.6463 15.9522C19.6368 15.7732 19.6648 15.5942 19.7286 15.4266C19.7923 15.259 19.8903 15.1066 20.0163 14.979C20.1423 14.8515 20.2936 14.7517 20.4604 14.686C20.6272 14.6203 20.8059 14.5901 20.9851 14.5974H21.605V17.3044ZM22.8289 14.5974H23.4382C23.6174 14.5901 23.7962 14.6203 23.9632 14.686C24.1301 14.7517 24.2815 14.8514 24.4077 14.9789C24.534 15.1064 24.6322 15.2588 24.6963 15.4264C24.7603 15.594 24.7887 15.7731 24.7796 15.9522C24.7887 16.1313 24.7603 16.3103 24.6963 16.4777C24.6322 16.6452 24.5339 16.7974 24.4076 16.9247C24.2814 17.052 24.1299 17.1515 23.963 17.2169C23.796 17.2823 23.6173 17.3121 23.4382 17.3044H22.8289V14.5974Z" fill="#1F1F1F"/>
</svg>
