<svg width="32" height="32" viewBox="0 0 32 32" fill="none" xmlns="http://www.w3.org/2000/svg">
<path d="M27.6142 4.87252C27.6142 4.87252 30.2042 3.86252 29.9875 6.31518C29.9162 7.32518 29.2689 10.8605 28.7649 14.6838L27.0382 26.0105C27.0382 26.0105 26.8942 27.6698 25.5989 27.9585C24.3042 28.2465 22.3615 26.9485 22.0015 26.6598C21.7135 26.4432 16.6055 23.1965 14.8069 21.6098C14.3029 21.1765 13.7269 20.3112 14.8789 19.3012L22.4329 12.0865C23.2962 11.2212 24.1595 9.20118 20.5622 11.6538L10.4889 18.5072C10.4889 18.5072 9.33753 19.2292 7.17953 18.5798L2.5022 17.1365C2.5022 17.1365 0.775529 16.0545 3.72553 14.9725C10.9209 11.5818 19.7709 8.11918 27.6129 4.87252H27.6142Z" fill="black"/>
</svg>
