<svg width="24" height="24" viewBox="0 0 24 24" fill="none" xmlns="http://www.w3.org/2000/svg">
<g opacity="0.5">
<path d="M22 12C21.9995 9.348 20.9457 6.80477 19.0705 4.92952C17.1952 3.05427 14.652 2.00053 12 2V4C13.5821 4.00036 15.1286 4.46964 16.4441 5.34854C17.7596 6.22744 18.7851 7.47653 19.391 8.938C19.7931 9.90877 20.0001 10.9492 20 12H22ZM2 10V5C2 4.73478 2.10536 4.48043 2.29289 4.29289C2.48043 4.10536 2.73478 4 3 4H8C8.26522 4 8.51957 4.10536 8.70711 4.29289C8.89464 4.48043 9 4.73478 9 5V9C9 9.26522 8.89464 9.51957 8.70711 9.70711C8.51957 9.89464 8.26522 10 8 10H6C6 12.1217 6.84285 14.1566 8.34315 15.6569C9.84344 17.1571 11.8783 18 14 18V16C14 15.7348 14.1054 15.4804 14.2929 15.2929C14.4804 15.1054 14.7348 15 15 15H19C19.2652 15 19.5196 15.1054 19.7071 15.2929C19.8946 15.4804 20 15.7348 20 16V21C20 21.2652 19.8946 21.5196 19.7071 21.7071C19.5196 21.8946 19.2652 22 19 22H14C7.373 22 2 16.627 2 10Z" fill="white"/>
<path d="M17.543 9.704C17.8449 10.4318 18.0002 11.2121 18 12H16.2C16.2001 11.4484 16.0916 10.9022 15.8806 10.3926C15.6695 9.88295 15.3602 9.41989 14.9701 9.02986C14.5801 8.63983 14.1171 8.33046 13.6074 8.11944C13.0978 7.90841 12.5516 7.79987 12 7.8V6C13.1867 6.00006 14.3466 6.352 15.3333 7.0113C16.3199 7.6706 17.0889 8.60767 17.543 9.704Z" fill="white"/>
</g>
</svg>
