<svg width="28" height="25" viewBox="0 0 28 25" fill="none" xmlns="http://www.w3.org/2000/svg">
<g clip-path="url(#clip0_543_8119)">
<path d="M5.40309 1.43789C11.0706 -0.0346363 17.0351 -0.0346363 22.7026 1.43789C24.6052 1.93209 26.0582 3.44969 26.4359 5.33686C27.1051 8.68119 27.1051 12.1209 26.4359 15.4653C26.0583 17.3524 24.6052 18.87 22.7026 19.3647C22.5589 19.4021 22.4149 19.4385 22.2707 19.474C21.9854 19.544 21.7839 19.7966 21.7839 20.0842V24.0819C21.7839 24.1797 21.7256 24.2688 21.6347 24.3101C21.544 24.3513 21.4365 24.3374 21.36 24.2741L17.1861 20.8315C16.8343 20.5415 16.3818 20.3934 15.9221 20.4183C12.3808 20.611 8.83062 20.2553 5.40309 19.3647C3.50049 18.87 2.04743 17.3524 1.66984 15.4653C1.00068 12.1209 1.00068 8.68119 1.66984 5.33686C2.04753 3.44969 3.50059 1.93209 5.40309 1.43789ZM16.3723 15.4351C16.5136 15.4351 16.63 15.3215 16.63 15.1834V10.4011H21.5262C21.6676 10.4011 21.7839 10.2875 21.7839 10.1494V5.61869C21.7839 5.48066 21.6676 5.36703 21.5262 5.36703H6.57975C6.43837 5.36703 6.32204 5.48066 6.32204 5.61869V10.1494C6.32204 10.2875 6.43837 10.4011 6.57975 10.4011H11.476V15.1834C11.476 15.3215 11.5923 15.4351 11.7337 15.4351H16.3723Z" fill="#1F1F1F"/>
<path d="M22.1042 2.62744H6.05469V18.2512H22.1042V2.62744Z" fill="#1F1F1F"/>
<path fill-rule="evenodd" clip-rule="evenodd" d="M20.0072 5.34626C20.0072 4.97112 19.6948 4.66699 19.3094 4.66699H8.84234C8.45693 4.66699 8.14453 4.97112 8.14453 5.34626V7.72383C8.14453 8.09896 8.45693 8.40313 8.84234 8.40313H11.2866C11.672 8.40313 11.9844 8.70724 11.9844 9.08242V15.5324C11.9844 15.9075 12.2968 16.2116 12.6822 16.2116H15.4734C15.8588 16.2116 16.1712 15.9075 16.1712 15.5324V9.08242C16.1712 8.70724 16.4837 8.40313 16.8691 8.40313H19.3094C19.6948 8.40313 20.0072 8.09896 20.0072 7.72383V5.34626Z" fill="white"/>
<path d="M5.32979 1.41878C10.8992 -0.028264 16.7604 -0.028264 22.3298 1.41878C24.1995 1.90442 25.6274 3.39574 25.9985 5.25026C26.6561 8.5367 26.6561 11.9169 25.9985 15.2034C25.6274 17.0579 24.1995 18.5492 22.3298 19.0353C22.1887 19.072 22.0471 19.1078 21.9054 19.1427C21.6251 19.2115 21.4271 19.4597 21.4271 19.7423V23.6708C21.4271 23.7669 21.3697 23.8545 21.2805 23.895C21.1913 23.9355 21.0856 23.9219 21.0105 23.8597L16.9088 20.4767C16.5631 20.1917 16.1184 20.0462 15.6667 20.0707C12.1867 20.26 8.69799 19.9105 5.32979 19.0353C3.46012 18.5492 2.03221 17.0579 1.66115 15.2034C1.00357 11.9169 1.00357 8.5367 1.66115 5.25026C2.03231 3.39574 3.46022 1.90442 5.32979 1.41878ZM16.1091 15.1737C16.248 15.1737 16.3623 15.0621 16.3623 14.9264V10.2268H21.1739C21.3127 10.2268 21.4271 10.1152 21.4271 9.97949V5.52719C21.4271 5.39157 21.3127 5.2799 21.1739 5.2799H6.48606C6.34714 5.2799 6.23283 5.39157 6.23283 5.52719V9.97949C6.23283 10.1152 6.34714 10.2268 6.48606 10.2268H11.2976V14.9264C11.2976 15.0621 11.4119 15.1737 11.5508 15.1737H16.1091Z" fill="#1F1F1F"/>
<path fill-rule="evenodd" clip-rule="evenodd" d="M20.0072 5.34431C20.0072 4.96917 19.6948 4.66504 19.3094 4.66504H8.84234C8.45693 4.66504 8.14453 4.96917 8.14453 5.34431V7.72188C8.14453 8.09701 8.45693 8.40118 8.84234 8.40118H19.3094C19.6948 8.40118 20.0072 8.09701 20.0072 7.72188V5.34431ZM15.4734 16.2135C15.8588 16.2135 16.1712 15.9094 16.1712 15.5342V9.08092C16.1712 8.70578 15.8588 8.40167 15.4734 8.40167H12.6822C12.2968 8.40167 11.9844 8.70578 11.9844 9.08092V15.5342C11.9844 15.9094 12.2968 16.2135 12.6822 16.2135H15.4734Z" fill="white"/>
</g>
<defs>
<clipPath id="clip0_543_8119">
<rect width="26.6667" height="24" fill="white" transform="translate(0.667969 0.333496)"/>
</clipPath>
</defs>
</svg>
