<svg width="32" height="32" viewBox="0 0 32 32" fill="none" xmlns="http://www.w3.org/2000/svg">
<path d="M29.3334 15.9998C29.3327 12.4638 27.9277 9.07286 25.4274 6.57253C22.9271 4.0722 19.5361 2.66721 16.0001 2.6665V5.33317C18.1095 5.33365 20.1715 5.95935 21.9255 7.13122C23.6795 8.30309 25.0469 9.96854 25.8547 11.9172C26.3909 13.2115 26.6668 14.5988 26.6667 15.9998H29.3334ZM2.66675 13.3332V6.6665C2.66675 6.31288 2.80722 5.97374 3.05727 5.7237C3.30732 5.47365 3.64646 5.33317 4.00008 5.33317H10.6667C11.0204 5.33317 11.3595 5.47365 11.6096 5.7237C11.8596 5.97374 12.0001 6.31288 12.0001 6.6665V11.9998C12.0001 12.3535 11.8596 12.6926 11.6096 12.9426C11.3595 13.1927 11.0204 13.3332 10.6667 13.3332H8.00008C8.00008 16.1621 9.12389 18.8753 11.1243 20.8756C13.1247 22.876 15.8378 23.9998 18.6667 23.9998V21.3332C18.6667 20.9795 18.8072 20.6404 19.0573 20.3904C19.3073 20.1403 19.6465 19.9998 20.0001 19.9998H25.3334C25.687 19.9998 26.0262 20.1403 26.2762 20.3904C26.5263 20.6404 26.6667 20.9795 26.6667 21.3332V27.9998C26.6667 28.3535 26.5263 28.6926 26.2762 28.9426C26.0262 29.1927 25.687 29.3332 25.3334 29.3332H18.6667C9.83075 29.3332 2.66675 22.1692 2.66675 13.3332Z" fill="white" fill-opacity="0.5"/>
<path d="M23.3907 12.9387C23.7931 13.9091 24.0002 14.9494 24 16H21.6C21.6002 15.2645 21.4554 14.5363 21.1741 13.8568C20.8927 13.1773 20.4802 12.5599 19.9602 12.0398C19.4401 11.5198 18.8227 11.1073 18.1432 10.8259C17.4637 10.5446 16.7355 10.3998 16 10.4V8C17.5822 8.00008 19.1289 8.46933 20.4444 9.3484C21.7599 10.2275 22.7852 11.4769 23.3907 12.9387Z" fill="white" fill-opacity="0.5"/>
</svg>
