<svg width="40" height="40" viewBox="0 0 40 40" fill="none" xmlns="http://www.w3.org/2000/svg">
<g clip-path="url(#clip0_649_10475)">
<path d="M25.249 0C17.1156 0 10.4982 6.61747 10.4982 14.7508C10.4982 18.3356 11.7863 21.6237 13.9204 24.1826L11.9346 26.1684L10.9863 25.2201C10.4624 24.6962 9.61353 24.6962 9.08962 25.2201L1.17637 33.1326C-0.391981 34.7018 -0.391981 37.2543 1.17551 38.8236C1.17637 38.8236 1.17637 38.8236 1.17637 38.8245C2.74746 40.3921 5.29714 40.3911 6.86737 38.8245L14.7798 30.9103C15.3037 30.3864 15.3037 29.5375 14.7798 29.0136L13.8315 28.0653L15.8173 26.0795C18.3763 28.2137 21.6643 29.5017 25.2492 29.5017C33.3826 29.5017 40 22.8842 40 14.7509C40 6.61755 33.3824 0 25.249 0ZM25.249 24.1365C20.0742 24.1365 15.8634 19.9257 15.8634 14.7509C15.8634 9.57606 20.0742 5.36521 25.249 5.36521C30.4238 5.36521 34.6346 9.57598 34.6346 14.7508C34.6346 19.9256 30.4238 24.1365 25.249 24.1365Z" fill="#9F9A98"/>
</g>
<defs>
<clipPath id="clip0_649_10475">
<rect width="40" height="40" fill="white"/>
</clipPath>
</defs>
</svg>
