<svg width="41" height="40" viewBox="0 0 41 40" fill="none" xmlns="http://www.w3.org/2000/svg">
<g clip-path="url(#clip0_649_10329)">
<path d="M14.418 13.75V7.5H26.918V12.15L25.318 13.75H14.418Z" fill="#9F9A98"/>
<path d="M26.8071 15.8125L32.1071 21.1125L23.6446 29.575C23.4629 29.7518 23.2324 29.8701 22.9829 29.9146C22.7334 29.9592 22.4762 29.928 22.2446 29.825L18.1446 32.2125C17.9038 32.3424 17.6246 32.3823 17.3571 32.325L15.6821 33.9875C15.5691 34.1058 15.4333 34.2 15.2829 34.2645C15.1325 34.3289 14.9707 34.3623 14.8071 34.3625C14.5601 34.361 14.3191 34.2867 14.1141 34.1489C13.9091 34.0112 13.7493 33.8161 13.6546 33.588C13.5599 33.3599 13.5346 33.109 13.5817 32.8666C13.6288 32.6241 13.7463 32.401 13.9196 32.225L15.5946 30.55C15.531 30.2868 15.5713 30.0092 15.7071 29.775L18.0946 25.6625C17.986 25.432 17.9518 25.1735 17.9966 24.9227C18.0414 24.6719 18.163 24.4412 18.3446 24.2625L26.8071 15.8125Z" fill="#9F9A98"/>
<path d="M38.6664 12.775L36.9039 14.55C37.0198 14.6657 37.1117 14.803 37.1745 14.9542C37.2372 15.1055 37.2695 15.2676 37.2695 15.4313C37.2695 15.595 37.2372 15.7571 37.1745 15.9083C37.1117 16.0595 37.0198 16.1969 36.9039 16.3125L33.8664 19.35L28.5664 14.0375L31.5914 11.0125C31.8274 10.7783 32.1464 10.6469 32.4789 10.6469C32.8114 10.6469 33.1304 10.7783 33.3664 11.0125L35.1289 9.23752C35.598 8.76842 36.2342 8.50488 36.8977 8.50488C37.5611 8.50488 38.1973 8.76842 38.6664 9.23752C39.1355 9.70662 39.399 10.3429 39.399 11.0063C39.399 11.6697 39.1355 12.3059 38.6664 12.775Z" fill="#9F9A98"/>
<path d="M33.363 26.4014C33.1158 26.4014 32.8742 26.328 32.6687 26.1907C32.4632 26.0533 32.303 25.8581 32.2084 25.6297C32.1138 25.4013 32.0891 25.1501 32.1373 24.9076C32.1855 24.6652 32.3045 24.4425 32.4793 24.2677L36.8989 19.8487L35.1313 18.081C35.0123 17.9656 34.9175 17.8277 34.8523 17.6753C34.7871 17.5229 34.7529 17.359 34.7517 17.1933C34.7504 17.0276 34.7821 16.8632 34.845 16.7098C34.9078 16.5565 35.0006 16.4171 35.1178 16.2999C35.235 16.1827 35.3743 16.09 35.5277 16.0272C35.6811 15.9643 35.8454 15.9326 36.0112 15.9339C36.1769 15.9351 36.3408 15.9694 36.4932 16.0345C36.6456 16.0997 36.7835 16.1946 36.8989 16.3135L38.6664 18.081C39.1345 18.5502 39.3974 19.1859 39.3974 19.8487C39.3974 20.5114 39.1345 21.1471 38.6664 21.6163L34.2469 26.0352C34.131 26.1514 33.9932 26.2436 33.8415 26.3065C33.6898 26.3693 33.5272 26.4016 33.363 26.4014Z" fill="#9F9A98"/>
<path d="M29.8305 9.2375C30.2037 8.86433 30.6518 8.57448 31.1452 8.38703C31.6386 8.19958 32.1661 8.1188 32.693 8.15L33.368 7.475C34.2486 6.60378 35.4295 6.10282 36.668 6.075V2.6625C36.6653 1.95719 36.3839 1.28154 35.8852 0.782811C35.3864 0.284079 34.7108 0.00269971 34.0055 0L7.33047 0C6.62516 0.00269971 5.94951 0.284079 5.45078 0.782811C4.95205 1.28154 4.67067 1.95719 4.66797 2.6625V3.75H3.16797C2.83645 3.75 2.51851 3.8817 2.28409 4.11612C2.04966 4.35054 1.91797 4.66848 1.91797 5C1.91797 5.33152 2.04966 5.64946 2.28409 5.88388C2.51851 6.1183 2.83645 6.25 3.16797 6.25H4.66797V11.25H3.16797C2.83645 11.25 2.51851 11.3817 2.28409 11.6161C2.04966 11.8505 1.91797 12.1685 1.91797 12.5C1.91797 12.8315 2.04966 13.1495 2.28409 13.3839C2.51851 13.6183 2.83645 13.75 3.16797 13.75H4.66797V18.75H3.16797C2.83645 18.75 2.51851 18.8817 2.28409 19.1161C2.04966 19.3505 1.91797 19.6685 1.91797 20C1.91797 20.3315 2.04966 20.6495 2.28409 20.8839C2.51851 21.1183 2.83645 21.25 3.16797 21.25H4.66797V26.25H3.16797C2.83645 26.25 2.51851 26.3817 2.28409 26.6161C2.04966 26.8505 1.91797 27.1685 1.91797 27.5C1.91797 27.8315 2.04966 28.1495 2.28409 28.3839C2.51851 28.6183 2.83645 28.75 3.16797 28.75H4.66797V33.75H3.16797C2.83645 33.75 2.51851 33.8817 2.28409 34.1161C2.04966 34.3505 1.91797 34.6685 1.91797 35C1.91797 35.3315 2.04966 35.6495 2.28409 35.8839C2.51851 36.1183 2.83645 36.25 3.16797 36.25H4.66797V37.3375C4.67067 38.0428 4.95205 38.7185 5.45078 39.2172C5.94951 39.7159 6.62516 39.9973 7.33047 40H34.0055C34.7108 39.9973 35.3864 39.7159 35.8852 39.2172C36.3839 38.7185 36.6653 38.0428 36.668 37.3375V27.15L36.018 27.8C35.6703 28.1487 35.2573 28.4253 34.8026 28.6141C34.3479 28.8029 33.8603 28.9 33.368 28.9C32.8756 28.9 32.3881 28.8029 31.9333 28.6141C31.4786 28.4253 31.0656 28.1487 30.718 27.8C30.4173 27.4994 30.1719 27.1482 29.993 26.7625L25.4055 31.3375C25.0597 31.6991 24.6417 31.9839 24.1787 32.1734C23.7157 32.3629 23.218 32.4529 22.718 32.4375L19.393 34.375C19.1036 34.5395 18.7921 34.6616 18.468 34.7375L17.4555 35.7625C17.1072 36.113 16.6931 36.3914 16.237 36.5814C15.7809 36.7715 15.2917 36.8696 14.7976 36.8701C14.3034 36.8707 13.8141 36.7736 13.3576 36.5844C12.901 36.3953 12.4864 36.1179 12.1374 35.7681C11.7884 35.4182 11.5119 35.0029 11.3239 34.546C11.1358 34.089 11.0399 33.5994 11.0416 33.1053C11.0432 32.6111 11.1425 32.1222 11.3337 31.6665C11.5248 31.2109 11.8041 30.7974 12.1555 30.45L13.168 29.4375C13.2427 29.1111 13.3693 28.7988 13.543 28.5125L14.8555 26.25H13.168C12.8364 26.25 12.5185 26.1183 12.2841 25.8839C12.0497 25.6495 11.918 25.3315 11.918 25C11.918 24.6685 12.0497 24.3505 12.2841 24.1161C12.5185 23.8817 12.8364 23.75 13.168 23.75H15.743C15.9373 23.2854 16.2172 22.8614 16.568 22.5L17.818 21.25H13.168C12.8364 21.25 12.5185 21.1183 12.2841 20.8839C12.0497 20.6495 11.918 20.3315 11.918 20C11.918 19.6685 12.0497 19.3505 12.2841 19.1161C12.5185 18.8817 12.8364 18.75 13.168 18.75H20.318L22.818 16.25H13.168C12.8367 16.249 12.5194 16.117 12.2851 15.8828C12.0509 15.6486 11.9189 15.3312 11.918 15V6.25C11.9189 5.91877 12.0509 5.60139 12.2851 5.36717C12.5194 5.13296 12.8367 5.00096 13.168 5H28.168C28.4992 5.00096 28.8166 5.13296 29.0508 5.36717C29.285 5.60139 29.417 5.91877 29.418 6.25V9.65L29.8305 9.2375Z" fill="#9F9A98"/>
</g>
<defs>
<clipPath id="clip0_649_10329">
<rect width="40" height="40" fill="white" transform="translate(0.667969)"/>
</clipPath>
</defs>
</svg>
