<svg width="40" height="40" viewBox="0 0 40 40" fill="none" xmlns="http://www.w3.org/2000/svg">
<path d="M35.6101 14.7368H31.5785V20.3684C31.5758 21.9449 30.9483 23.456 29.8335 24.5707C28.7188 25.6855 27.2077 26.313 25.6312 26.3158H15.7891V29.3158C15.7946 30.1971 16.1486 31.0404 16.7738 31.6617C17.399 32.2829 18.2446 32.6316 19.1259 32.6316H27.9891L32.9364 37.5894C33.0348 37.687 33.1514 37.7642 33.2797 37.8166C33.4079 37.869 33.5453 37.8955 33.6838 37.8947C33.8219 37.8983 33.9589 37.8694 34.0838 37.8105C34.276 37.7315 34.4406 37.5974 34.5567 37.4251C34.6729 37.2528 34.7354 37.0499 34.7364 36.8421V32.6316H35.6101C36.4933 32.6316 37.3404 32.2814 37.9659 31.6579C38.5914 31.0344 38.9442 30.1884 38.947 29.3052V18.0631C38.9442 17.18 38.5914 16.3339 37.9659 15.7104C37.3404 15.0869 36.4933 14.7368 35.6101 14.7368Z" fill="#9F9A98"/>
<path d="M29.4718 5.93705C29.4663 4.92074 29.0594 3.94779 28.3397 3.23013C27.6201 2.51247 26.646 2.10823 25.6297 2.10547H4.89289C3.87657 2.10823 2.90251 2.51247 2.18287 3.23013C1.46324 3.94779 1.05633 4.92074 1.05078 5.93705V20.3581C1.05078 21.3781 1.45523 22.3564 2.17547 23.0786C2.8957 23.8008 3.87293 24.2079 4.89289 24.2107H5.26131V29.4739C5.26081 29.6752 5.31806 29.8725 5.42627 30.0423C5.53449 30.212 5.68912 30.3472 5.87183 30.4318C6.01119 30.4932 6.16165 30.5254 6.31394 30.5265C6.56483 30.5265 6.80747 30.4369 6.99815 30.2739L14.0718 24.2107H25.6508C26.6671 24.2024 27.6389 23.7928 28.3546 23.0712C29.0703 22.3496 29.4719 21.3744 29.4718 20.3581V5.93705ZM15.5245 5.78968C15.7847 5.78968 16.0391 5.86685 16.2555 6.01143C16.4719 6.15601 16.6405 6.36151 16.7401 6.60194C16.8397 6.84237 16.8657 7.10693 16.815 7.36217C16.7642 7.6174 16.6389 7.85186 16.4549 8.03587C16.2709 8.21989 16.0364 8.34521 15.7812 8.39598C15.5259 8.44675 15.2614 8.42069 15.0209 8.3211C14.7805 8.22151 14.575 8.05286 14.4304 7.83648C14.2858 7.6201 14.2087 7.36571 14.2087 7.10547C14.2087 6.7565 14.3473 6.42182 14.5941 6.17507C14.8408 5.92831 15.1755 5.78968 15.5245 5.78968ZM17.8929 20.0002H13.6824C13.4032 20.0002 13.1354 19.8893 12.938 19.6919C12.7406 19.4945 12.6297 19.2267 12.6297 18.9476C12.6297 18.6684 12.7406 18.4007 12.938 18.2033C13.1354 18.0058 13.4032 17.8949 13.6824 17.8949H14.735V11.5792H13.6824C13.4032 11.5792 13.1354 11.4683 12.938 11.2708C12.7406 11.0734 12.6297 10.8057 12.6297 10.5265C12.6297 10.2473 12.7406 9.97961 12.938 9.7822C13.1354 9.58479 13.4032 9.47389 13.6824 9.47389H15.7876C15.9262 9.47309 16.0635 9.49964 16.1917 9.55203C16.32 9.60441 16.4366 9.68159 16.535 9.77915C16.6326 9.87751 16.7097 9.99416 16.7621 10.1224C16.8145 10.2507 16.8411 10.388 16.8403 10.5265V17.8949H17.8929C18.1721 17.8949 18.4398 18.0058 18.6372 18.2033C18.8346 18.4007 18.9455 18.6684 18.9455 18.9476C18.9455 19.2267 18.8346 19.4945 18.6372 19.6919C18.4398 19.8893 18.1721 20.0002 17.8929 20.0002Z" fill="#9F9A98"/>
</svg>
