<svg width="40" height="40" viewBox="0 0 40 40" fill="none" xmlns="http://www.w3.org/2000/svg">
<g opacity="0.5">
<path d="M26.6684 30.1025V28.04C29.1173 26.4875 31.1128 22.62 31.1128 18.75C31.1128 12.5375 31.1128 7.5 24.4462 7.5C17.7795 7.5 17.7795 12.5375 17.7795 18.75C17.7795 22.62 19.7751 26.4875 22.224 28.04V30.1025C14.6862 30.795 8.89062 34.9625 8.89062 40H40.0017C40.0017 34.9625 34.2062 30.795 26.6684 30.1025Z" fill="#403531"/>
<path d="M11.36 31.0699C13.28 29.6574 15.6689 28.5849 18.2978 27.9299C17.7625 27.2156 17.2913 26.4435 16.8911 25.6249C15.8486 23.5238 15.2938 21.161 15.2778 18.7549C15.2778 15.3949 15.2778 12.2199 16.34 9.62238C17.3711 7.10238 19.2267 5.53988 21.8689 4.95488C21.2822 1.96738 19.7178 0.00488281 15.5556 0.00488281C8.88889 0.00488281 8.88889 5.04238 8.88889 11.2549C8.88889 15.1249 10.8844 18.9924 13.3333 20.5449V22.6074C5.79556 23.2999 0 27.4674 0 32.5049H9.68667C10.1911 31.9999 10.7489 31.5224 11.36 31.0724V31.0699Z" fill="#403531"/>
</g>
</svg>
