<svg width="40" height="40" viewBox="0 0 40 40" fill="none" xmlns="http://www.w3.org/2000/svg">
<g opacity="0.5">
<path d="M2.5 12.5C2.5 10.8424 3.15848 9.25269 4.33058 8.08058C5.50269 6.90848 7.0924 6.25 8.75 6.25H21.25C22.9076 6.25 24.4973 6.90848 25.6694 8.08058C26.8415 9.25269 27.5 10.8424 27.5 12.5V27.5C27.5005 28.8669 27.0528 30.1963 26.2256 31.2845C25.3984 32.3727 24.2372 33.1598 22.92 33.525C24.6483 30.756 25.3353 27.4625 24.8579 24.2335C24.3806 21.0045 22.7701 18.0506 20.3145 15.9002C17.8589 13.7497 14.7184 12.543 11.4546 12.4958C8.19087 12.4486 5.01676 13.564 2.5 15.6425V12.5ZM30 14.73L35.46 10.2775C35.6432 10.1281 35.8649 10.0337 36.0996 10.0053C36.3342 9.97685 36.5721 10.0155 36.7856 10.1168C36.9992 10.2181 37.1797 10.3778 37.3061 10.5775C37.4325 10.7772 37.4998 11.0086 37.5 11.245V28.745C37.5002 28.9816 37.4333 29.2133 37.3071 29.4134C37.1808 29.6135 37.0004 29.7736 36.7868 29.8752C36.5731 29.9768 36.335 30.0156 36.1002 29.9873C35.8653 29.9589 35.6433 29.8645 35.46 29.715L30 25.2675V14.73ZM20.6075 32.5C21.8446 30.6506 22.5034 28.475 22.5 26.25C22.4997 24.5328 22.1063 22.8385 21.35 21.2968C20.5937 19.7551 19.4944 18.4071 18.1366 17.3559C16.7787 16.3047 15.1982 15.5784 13.5162 15.2325C11.8342 14.8865 10.0953 14.9303 8.43286 15.3603C6.77037 15.7903 5.22839 16.5952 3.92506 17.7132C2.62173 18.8313 1.59164 20.2329 0.913741 21.8106C0.235837 23.3884 -0.0718947 25.1003 0.0141248 26.8154C0.100144 28.5304 0.577632 30.203 1.41 31.705L0.047501 36.1775C-0.0052521 36.3546 -0.00916796 36.5426 0.0361676 36.7217C0.0815032 36.9008 0.174405 37.0643 0.305044 37.195C0.435684 37.3256 0.599205 37.4185 0.778309 37.4638C0.957412 37.5092 1.14544 37.5053 1.3225 37.4525L5.7975 36.0925C7.46547 37.0184 9.34229 37.5029 11.25 37.5C15.15 37.5 18.59 35.515 20.6075 32.5ZM6.2525 30C5.92098 30.0003 5.60291 29.869 5.36825 29.6348C5.1336 29.4006 5.00158 29.0828 5.00125 28.7512C5.00092 28.4197 5.1323 28.1017 5.36648 27.867C5.60067 27.6323 5.91848 27.5003 6.25 27.5H11.25C11.5815 27.5 11.8995 27.6317 12.1339 27.8661C12.3683 28.1005 12.5 28.4185 12.5 28.75C12.5 29.0815 12.3683 29.3995 12.1339 29.6339C11.8995 29.8683 11.5815 30 11.25 30H6.2525ZM5 23.75C5 23.4185 5.1317 23.1005 5.36612 22.8661C5.60054 22.6317 5.91848 22.5 6.25 22.5H16.25C16.5815 22.5 16.8995 22.6317 17.1339 22.8661C17.3683 23.1005 17.5 23.4185 17.5 23.75C17.5 24.0815 17.3683 24.3995 17.1339 24.6339C16.8995 24.8683 16.5815 25 16.25 25H6.25C5.91848 25 5.60054 24.8683 5.36612 24.6339C5.1317 24.3995 5 24.0815 5 23.75Z" fill="#403531"/>
</g>
</svg>
